<svg width="1071" height="1075" viewBox="0 0 1071 1075" fill="none" xmlns="http://www.w3.org/2000/svg">
<circle cx="536" cy="540" r="535" fill="#1C6E99"/>
<path d="M956.18 211.126C705.451 431.631 289.531 303.003 112.912 211.126C157.933 148.323 286.068 3.52946 554.459 0.0404519C769.172 -2.75076 911.737 139.601 956.18 211.126Z" fill="#0A558B"/>
<path d="M201.222 472.802C112.912 453.43 76.5497 531.417 180.443 591.428C310.31 666.442 415.935 519.904 201.222 472.802Z" fill="#0A558B"/>
<path d="M414.203 429.189C331.088 374.761 140.617 316.959 55.771 294.862C50.23 301.84 39.6098 334.986 34.9923 350.687C41.9186 342.546 86.5927 336.033 209.88 375.11C363.988 423.956 441.908 603.64 564.849 486.758C687.789 369.876 1056.61 404.766 1051.42 387.321C1047.26 373.365 1031.21 333.823 1023.71 315.796C944.752 300.445 769.172 368.713 691.252 404.766C633.534 435.586 497.318 483.618 414.203 429.189Z" fill="#0A558B"/>
<path d="M523.291 706.566C621.644 613.06 926.744 605.966 1067 614.107L1058.34 657.72L1051.42 655.975C839.478 620.656 885.642 632.614 651.427 762.554C598.903 857.284 437.059 1030.7 209.88 966.497C163.128 923.466 64.7758 819.261 45.3823 746.689C137.732 857.284 388.23 1015.29 651.427 762.554C631.138 773.81 608.744 785.952 583.896 799.025C272.216 963.008 12.4821 628.063 3.82433 591.428C-3.1019 562.121 0.9384 509.437 3.82433 486.758C34.9923 544.327 400.351 823.448 523.291 706.566Z" fill="#0A558B"/>
<path d="M1006.4 799.025C919.241 807.166 738.351 867.758 712.032 1045C768.019 1032.21 905.273 965.102 1006.4 799.025Z" fill="#0A558B"/>
</svg>
