<svg width="1097" height="1155" viewBox="0 0 1097 1155" fill="none" xmlns="http://www.w3.org/2000/svg">
<circle cx="577.353" cy="577.353" r="446.037" transform="rotate(21.2462 577.353 577.353)" fill="#103676"/>
<path d="M346.851 742.509C358.995 687.186 207.839 606.52 130.743 573.102C130.61 756.212 238.437 879.962 292.367 918.948C306.014 929.304 338.761 940.773 360.57 903.807C387.832 857.598 251.368 789.736 240.598 754.563C229.829 719.389 331.67 811.662 346.851 742.509Z" fill="#1C7A5F"/>
<path d="M493.699 799.603C421.504 728.842 438.675 651.856 456.285 622.207C473.959 562.629 546.365 453.418 694.595 493.209C763.096 507.452 911.703 564.146 834.314 626.057C787.785 663.28 761.793 657.825 752.36 667.773C730.988 679.324 773.306 746.361 752.36 778.981C726.178 819.756 632.813 747.305 645.312 813.449C657.812 879.592 606.609 939.56 542.707 943.635C478.806 947.711 583.942 888.055 493.699 799.603Z" fill="#1C7A5F"/>
<path d="M694.595 844.316C691.655 816.456 733.301 825.051 754.491 832.83C786.492 845.273 766.972 872.456 742.746 863.037C718.521 853.618 698.269 879.141 694.595 844.316Z" fill="#1C7A5F"/>
<path d="M353.434 788.449C353.433 783.491 360.638 775.527 362.305 775.372C370.852 771.809 378.72 765.917 381.828 772.978C377.84 775.559 353.434 793.407 353.434 788.449Z" fill="#1C7A5F"/>
<path d="M320.336 779.712C316.973 777.027 335.882 774.853 338.629 773.397C346.431 766.79 355.221 772.044 354.612 774.791C352.026 778.491 323.699 782.396 320.336 779.712Z" fill="#1C7A5F"/>
<path d="M484.727 808.51C472.711 798.329 452.17 773.587 443.402 762.489C432.208 748.776 421.785 751.674 421.636 760.912C421.488 770.15 473.445 794.139 485.094 821.735C494.413 843.813 501.063 844.126 503.222 841.522C502.064 834.76 496.744 818.69 484.727 808.51Z" fill="#1C7A5F"/>
<path d="M666.209 965.142C627.795 971.14 599.009 1006.04 589.418 1022.74C645.723 1023.14 713.321 1003.66 740.081 993.864C745.225 979.453 748.402 944.836 719.955 921.657C684.397 892.683 714.226 957.645 666.209 965.142Z" fill="#1C7A5F"/>
<path d="M354.612 430.956C326.396 426.078 320.005 373.089 320.336 347.204C320.336 274.362 363.791 271.474 353.434 308.376C343.077 345.278 389.882 437.053 354.612 430.956Z" fill="#1C7A5F"/>
<path d="M390.845 430.956C384.833 425.929 374.614 413.564 381.828 404.322C390.845 392.77 409.457 433.523 390.845 430.956Z" fill="#1C7A5F"/>
<path d="M988.021 556.745C1001.63 495.904 962.456 432.132 941.171 407.852C926.41 388.269 918.388 437.053 913.253 464.008C908.119 490.962 966.2 502.514 959.141 524.656C952.081 546.797 971.014 632.795 988.021 556.745Z" fill="#1C7A5F"/>
<path d="M934.753 545.193C929.833 563.055 922.944 600.193 934.753 605.841C949.514 612.9 956.253 548.722 934.753 545.193Z" fill="#1C7A5F"/>
<path d="M920.313 524.656C918.174 531.501 915.178 545.193 920.313 545.193C926.731 545.193 930.902 530.432 920.313 524.656Z" fill="#1C7A5F"/>
<path d="M132.235 654.065C105.398 644.457 124.599 675.771 137.555 692.628C160.314 718.806 221.351 779.951 283.428 815.103C345.504 850.256 346.566 830.7 339.337 816.528C330.596 797.981 301.657 759.186 255.825 752.384C209.994 745.582 191.778 722.891 188.398 712.396C180.86 696.956 159.072 663.673 132.235 654.065Z" fill="#B8BBD1"/>
<path d="M372.905 886.043C312.038 847.78 279.752 843.742 271.218 846.507C247.643 871.722 380.716 917.312 383.558 921.515C386.399 925.718 478.233 963.145 528.41 957.177C568.552 952.402 542.764 935.903 524.853 928.25C499.565 930.124 433.772 924.306 372.905 886.043Z" fill="#B8BBD1"/>
<path d="M639.245 901.458C588.334 872.299 533.062 881.749 511.79 890.12C477.582 920.544 548.876 904.539 602.826 918.973C645.986 930.52 691.391 926.437 708.698 922.952C748.918 930.786 819.043 939.689 777.782 912.629C736.522 885.57 668.232 893.907 639.245 901.458Z" fill="#B8BBD1"/>
<path d="M802.11 951.008C764.455 971.348 701.218 952.522 674.306 940.567C650.236 931.634 652.193 958.48 689.278 972.899C726.364 987.318 780.18 987.928 799.437 982.677C818.693 977.425 849.178 925.584 802.11 951.008Z" fill="#B8BBD1"/>
<path d="M153.262 770.003C120.136 746.107 117.89 711.034 120.907 696.484C149.585 704.192 119.996 737.789 166.105 760.881C202.991 779.354 212.281 799.147 212.315 806.735C206.433 804.448 186.387 793.9 153.262 770.003Z" fill="#B8BBD1"/>
<path d="M888.089 913.169C924.47 913.818 916.194 880.142 907.509 863.223C874.311 850.316 902.216 911.087 840.717 876.503C779.218 841.919 694.884 838.051 724.942 859.033C755.001 880.016 842.614 912.359 888.089 913.169Z" fill="#B8BBD1"/>
<path d="M191.783 306.823C162.847 292.217 181.687 327.503 194.724 346.971C217.888 377.68 280.704 450.828 346.65 497.751C412.597 544.673 415.262 524.992 408.351 509.286C400.102 488.861 371.067 444.215 320.918 429.034C270.769 413.853 252.361 387.508 249.425 376.233C242.268 359.182 220.72 321.429 191.783 306.823Z" fill="#B8BBD1"/>
<path d="M440.16 585.984C375.788 536.119 340.403 526.191 330.757 527.46C302.771 548.831 446.411 619.169 449.232 623.953C452.053 628.738 550.724 683.34 606.651 686.328C651.393 688.718 624.142 667.299 604.924 656.29C576.824 653.632 504.532 635.849 440.16 585.984Z" fill="#B8BBD1"/>
<path d="M733.43 649.702C679.371 610.885 617.546 610.517 593.39 615.185C553.253 639.931 633.29 636.529 691.833 660.931C738.667 680.452 789.174 684.495 808.573 684.076C852.44 699.293 929.286 720.992 885.735 686.05C842.184 651.107 766.052 647.259 733.43 649.702Z" fill="#B8BBD1"/>
<path d="M906.484 745.834C869.079 771.483 812.136 772.484 783.296 755.479C757.367 742.059 743.396 769.693 783.296 791.036C823.195 812.38 879.353 785.495 899.246 776.654C936.229 760.217 954.426 712.96 906.484 745.834Z" fill="#B8BBD1"/>
<path d="M206.188 428.435C171.389 398.174 171.58 362.127 176.025 347.886C207.142 360.893 171.868 389.697 221.082 421.481C260.452 446.909 269.212 468.7 268.671 476.416C262.343 473.031 240.987 458.696 206.188 428.435Z" fill="#B8BBD1"/>
<path fill-rule="evenodd" clip-rule="evenodd" d="M850.173 224.334C817.116 198.809 779.889 177.535 738.986 161.632C580.347 99.9529 407.912 135.201 287.037 238.616C285.614 245.469 285.714 252.215 287.839 258.636C294.879 279.908 324.106 269.212 361.076 255.683C401.625 240.844 451.487 222.597 491.604 239.383C523.378 252.677 539.344 270.984 553.811 287.572C574.261 311.021 591.714 331.033 646.594 328.59C664.328 327.8 682.051 327.689 699.174 327.581C772.525 327.121 834.887 326.729 840.09 273.397C841.597 257.951 844.855 245.3 847.668 234.381L847.668 234.381C848.574 230.864 849.433 227.527 850.173 224.334ZM754.092 362.925C814.419 373.193 846.615 329.552 855.172 306.448C859.985 295.431 870.446 280.007 873.784 306.448C877.955 339.5 801.262 374.156 767.569 375.761C733.876 377.365 678.683 350.089 754.092 362.925ZM723.928 343.351C710.985 340.784 682.982 337.19 674.511 343.351C663.922 351.052 723.928 352.977 723.928 343.351ZM553.215 312.866C550.904 278.724 493.636 257.352 465.291 250.935C460.478 250.935 445.845 254.464 425.821 268.583C400.792 286.232 434.486 318.642 458.552 312.866C467.338 310.758 482.709 315.876 498.547 321.15C526.093 330.323 555.048 339.964 553.215 312.866ZM420.045 253.823C426.035 249.009 441.224 239.383 454.06 239.383C470.104 239.383 429.672 256.711 420.045 253.823Z" fill="#B8BBD1"/>
</svg>
