<svg width="1818" height="4795" viewBox="0 0 1818 4795" fill="none" xmlns="http://www.w3.org/2000/svg">
<circle cx="1298.35" cy="577.353" r="446.037" transform="rotate(21.2462 1298.35 577.353)" fill="#103676"/>
<path d="M1067.85 742.509C1080 687.186 928.839 606.52 851.743 573.102C851.61 756.212 959.437 879.962 1013.37 918.948C1027.01 929.304 1059.76 940.773 1081.57 903.807C1108.83 857.598 972.368 789.736 961.598 754.563C950.829 719.389 1052.67 811.662 1067.85 742.509Z" fill="#1C7A5F"/>
<path d="M1214.7 799.603C1142.5 728.842 1159.68 651.856 1177.28 622.207C1194.96 562.629 1267.36 453.418 1415.59 493.209C1484.1 507.452 1632.7 564.146 1555.31 626.057C1508.79 663.28 1482.79 657.825 1473.36 667.773C1451.99 679.324 1494.31 746.361 1473.36 778.981C1447.18 819.756 1353.81 747.305 1366.31 813.449C1378.81 879.592 1327.61 939.56 1263.71 943.635C1199.81 947.711 1304.94 888.055 1214.7 799.603Z" fill="#1C7A5F"/>
<path d="M1415.59 844.316C1412.65 816.456 1454.3 825.051 1475.49 832.83C1507.49 845.273 1487.97 872.456 1463.75 863.037C1439.52 853.618 1419.27 879.141 1415.59 844.316Z" fill="#1C7A5F"/>
<path d="M1074.43 788.449C1074.43 783.491 1081.64 775.527 1083.31 775.372C1091.85 771.809 1099.72 765.917 1102.83 772.978C1098.84 775.559 1074.43 793.407 1074.43 788.449Z" fill="#1C7A5F"/>
<path d="M1041.34 779.712C1037.97 777.027 1056.88 774.853 1059.63 773.397C1067.43 766.79 1076.22 772.044 1075.61 774.791C1073.03 778.491 1044.7 782.396 1041.34 779.712Z" fill="#1C7A5F"/>
<path d="M1205.73 808.51C1193.71 798.329 1173.17 773.587 1164.4 762.489C1153.21 748.776 1142.79 751.674 1142.64 760.912C1142.49 770.15 1194.44 794.139 1206.09 821.735C1215.41 843.813 1222.06 844.126 1224.22 841.522C1223.06 834.76 1217.74 818.69 1205.73 808.51Z" fill="#1C7A5F"/>
<path d="M1387.21 965.142C1348.8 971.14 1320.01 1006.04 1310.42 1022.74C1366.72 1023.14 1434.32 1003.66 1461.08 993.864C1466.23 979.453 1469.4 944.836 1440.96 921.657C1405.4 892.683 1435.23 957.645 1387.21 965.142Z" fill="#1C7A5F"/>
<path d="M1075.61 430.956C1047.4 426.078 1041 373.089 1041.34 347.204C1041.34 274.362 1084.79 271.474 1074.43 308.376C1064.08 345.278 1110.88 437.053 1075.61 430.956Z" fill="#1C7A5F"/>
<path d="M1111.84 430.956C1105.83 425.929 1095.61 413.564 1102.83 404.322C1111.84 392.77 1130.46 433.523 1111.84 430.956Z" fill="#1C7A5F"/>
<path d="M1709.02 556.745C1722.63 495.904 1683.46 432.132 1662.17 407.852C1647.41 388.269 1639.39 437.053 1634.25 464.008C1629.12 490.962 1687.2 502.514 1680.14 524.656C1673.08 546.797 1692.01 632.795 1709.02 556.745Z" fill="#1C7A5F"/>
<path d="M1655.75 545.193C1650.83 563.055 1643.94 600.193 1655.75 605.841C1670.51 612.9 1677.25 548.722 1655.75 545.193Z" fill="#1C7A5F"/>
<path d="M1641.31 524.656C1639.17 531.501 1636.18 545.193 1641.31 545.193C1647.73 545.193 1651.9 530.432 1641.31 524.656Z" fill="#1C7A5F"/>
<path d="M853.235 654.065C826.398 644.457 845.599 675.771 858.555 692.628C881.314 718.806 942.351 779.951 1004.43 815.103C1066.5 850.256 1067.57 830.7 1060.34 816.528C1051.6 797.981 1022.66 759.186 976.825 752.384C930.994 745.582 912.778 722.891 909.398 712.396C901.86 696.956 880.072 663.673 853.235 654.065Z" fill="#B8BBD1"/>
<path d="M1093.9 886.043C1033.04 847.78 1000.75 843.742 992.218 846.507C968.643 871.722 1101.72 917.312 1104.56 921.515C1107.4 925.718 1199.23 963.145 1249.41 957.177C1289.55 952.402 1263.76 935.903 1245.85 928.25C1220.56 930.124 1154.77 924.306 1093.9 886.043Z" fill="#B8BBD1"/>
<path d="M1360.25 901.458C1309.33 872.299 1254.06 881.749 1232.79 890.12C1198.58 920.544 1269.88 904.539 1323.83 918.973C1366.99 930.52 1412.39 926.437 1429.7 922.952C1469.92 930.786 1540.04 939.689 1498.78 912.629C1457.52 885.57 1389.23 893.907 1360.25 901.458Z" fill="#B8BBD1"/>
<path d="M1523.11 951.008C1485.45 971.348 1422.22 952.522 1395.31 940.567C1371.24 931.634 1373.19 958.48 1410.28 972.899C1447.36 987.318 1501.18 987.928 1520.44 982.677C1539.69 977.425 1570.18 925.584 1523.11 951.008Z" fill="#B8BBD1"/>
<path d="M874.262 770.003C841.136 746.107 838.89 711.034 841.907 696.484C870.585 704.192 840.996 737.789 887.105 760.881C923.991 779.354 933.281 799.147 933.315 806.735C927.433 804.448 907.387 793.9 874.262 770.003Z" fill="#B8BBD1"/>
<path d="M1609.09 913.169C1645.47 913.818 1637.19 880.142 1628.51 863.223C1595.31 850.316 1623.22 911.087 1561.72 876.503C1500.22 841.919 1415.88 838.051 1445.94 859.033C1476 880.016 1563.61 912.359 1609.09 913.169Z" fill="#B8BBD1"/>
<path d="M912.783 306.823C883.847 292.217 902.687 327.503 915.724 346.971C938.888 377.68 1001.7 450.828 1067.65 497.751C1133.6 544.673 1136.26 524.992 1129.35 509.286C1121.1 488.861 1092.07 444.215 1041.92 429.034C991.769 413.853 973.361 387.508 970.425 376.233C963.268 359.182 941.72 321.429 912.783 306.823Z" fill="#B8BBD1"/>
<path d="M1161.16 585.984C1096.79 536.119 1061.4 526.191 1051.76 527.46C1023.77 548.831 1167.41 619.169 1170.23 623.953C1173.05 628.738 1271.72 683.34 1327.65 686.328C1372.39 688.718 1345.14 667.299 1325.92 656.29C1297.82 653.632 1225.53 635.849 1161.16 585.984Z" fill="#B8BBD1"/>
<path d="M1454.43 649.702C1400.37 610.885 1338.55 610.517 1314.39 615.185C1274.25 639.931 1354.29 636.529 1412.83 660.931C1459.67 680.452 1510.17 684.495 1529.57 684.076C1573.44 699.293 1650.29 720.992 1606.73 686.05C1563.18 651.107 1487.05 647.259 1454.43 649.702Z" fill="#B8BBD1"/>
<path d="M1627.48 745.834C1590.08 771.483 1533.14 772.484 1504.3 755.479C1478.37 742.059 1464.4 769.693 1504.3 791.036C1544.2 812.38 1600.35 785.495 1620.25 776.654C1657.23 760.217 1675.43 712.96 1627.48 745.834Z" fill="#B8BBD1"/>
<path d="M927.188 428.435C892.389 398.174 892.58 362.127 897.025 347.886C928.142 360.893 892.868 389.697 942.082 421.481C981.452 446.909 990.212 468.7 989.671 476.416C983.343 473.031 961.987 458.696 927.188 428.435Z" fill="#B8BBD1"/>
<path fill-rule="evenodd" clip-rule="evenodd" d="M1571.17 224.334C1538.12 198.809 1500.89 177.535 1459.99 161.632C1301.35 99.9529 1128.91 135.201 1008.04 238.616C1006.61 245.469 1006.71 252.215 1008.84 258.636C1015.88 279.908 1045.11 269.212 1082.08 255.683C1122.62 240.844 1172.49 222.597 1212.6 239.383C1244.38 252.677 1260.34 270.984 1274.81 287.572C1295.26 311.021 1312.71 331.033 1367.59 328.59C1385.33 327.8 1403.05 327.689 1420.17 327.581C1493.53 327.121 1555.89 326.729 1561.09 273.397C1562.6 257.951 1565.86 245.3 1568.67 234.381L1568.67 234.381C1569.57 230.864 1570.43 227.527 1571.17 224.334ZM1475.09 362.925C1535.42 373.193 1567.61 329.552 1576.17 306.448C1580.99 295.431 1591.45 280.007 1594.78 306.448C1598.96 339.5 1522.26 374.156 1488.57 375.761C1454.88 377.365 1399.68 350.089 1475.09 362.925ZM1444.93 343.351C1431.99 340.784 1403.98 337.19 1395.51 343.351C1384.92 351.052 1444.93 352.977 1444.93 343.351ZM1274.21 312.866C1271.9 278.724 1214.64 257.352 1186.29 250.935C1181.48 250.935 1166.85 254.464 1146.82 268.583C1121.79 286.232 1155.49 318.642 1179.55 312.866C1188.34 310.758 1203.71 315.876 1219.55 321.15C1247.09 330.323 1276.05 339.964 1274.21 312.866ZM1141.05 253.823C1147.04 249.009 1162.22 239.383 1175.06 239.383C1191.1 239.383 1150.67 256.711 1141.05 253.823Z" fill="#B8BBD1"/>
<ellipse cx="801.5" cy="2049.5" rx="482.5" ry="483.5" fill="#AF844D"/>
<circle cx="1009" cy="3299" r="535" fill="#1C6E99"/>
<path d="M1429.18 2970.13C1178.45 3190.63 762.531 3062 585.912 2970.13C630.933 2907.32 759.068 2762.53 1027.46 2759.04C1242.17 2756.25 1384.74 2898.6 1429.18 2970.13Z" fill="#0A558B"/>
<path d="M674.222 3231.8C585.912 3212.43 549.55 3290.42 653.443 3350.43C783.31 3425.44 888.935 3278.9 674.222 3231.8Z" fill="#0A558B"/>
<path d="M887.203 3188.19C804.088 3133.76 613.617 3075.96 528.771 3053.86C523.23 3060.84 512.61 3093.99 507.992 3109.69C514.919 3101.55 559.593 3095.03 682.88 3134.11C836.988 3182.96 914.908 3362.64 1037.85 3245.76C1160.79 3128.88 1529.61 3163.77 1524.42 3146.32C1520.26 3132.37 1504.21 3092.82 1496.71 3074.8C1417.75 3059.44 1242.17 3127.71 1164.25 3163.77C1106.53 3194.59 970.318 3242.62 887.203 3188.19Z" fill="#0A558B"/>
<path d="M996.291 3465.57C1094.64 3372.06 1399.74 3364.97 1540 3373.11L1531.34 3416.72L1524.42 3414.98C1312.48 3379.66 1358.64 3391.61 1124.43 3521.55C1071.9 3616.28 910.059 3789.7 682.88 3725.5C636.128 3682.47 537.776 3578.26 518.382 3505.69C610.732 3616.28 861.23 3774.29 1124.43 3521.55C1104.14 3532.81 1081.74 3544.95 1056.9 3558.02C745.216 3722.01 485.482 3387.06 476.824 3350.43C469.898 3321.12 473.938 3268.44 476.824 3245.76C507.992 3303.33 873.351 3582.45 996.291 3465.57Z" fill="#0A558B"/>
<path d="M1479.4 3558.02C1392.24 3566.17 1211.35 3626.76 1185.03 3804C1241.02 3791.21 1378.27 3724.1 1479.4 3558.02Z" fill="#0A558B"/>
<ellipse cx="590.5" cy="4181.5" rx="440.5" ry="441.5" fill="#842B37"/>
<ellipse cx="205" cy="4589.5" rx="205" ry="205.5" fill="#8E889E"/>
<ellipse cx="1242.5" cy="2515.5" rx="139.5" ry="140.5" fill="white"/>
<circle cx="1297" cy="2639" r="140" fill="white"/>
<circle cx="1174" cy="2632" r="140" fill="white"/>
</svg>
