<svg width="1795" height="5415" viewBox="0 0 1795 5415" fill="none" xmlns="http://www.w3.org/2000/svg">
<path d="M485.119 176.681C485.23 175.469 487.001 175.469 487.111 176.681L488.94 196.783C488.984 197.264 489.365 197.645 489.846 197.688L509.947 199.518C511.16 199.628 511.16 201.399 509.947 201.51L489.846 203.339C489.365 203.383 488.984 203.763 488.94 204.244L487.111 224.346C487.001 225.558 485.23 225.558 485.119 224.346L483.29 204.244C483.246 203.763 482.865 203.383 482.385 203.339L462.283 201.51C461.07 201.399 461.07 199.628 462.283 199.518L482.385 197.688C482.865 197.645 483.246 197.264 483.29 196.783L485.119 176.681Z" fill="white"/>
<path d="M33.7795 102.691C33.8898 101.479 35.6609 101.479 35.7712 102.691L37.6006 122.793C37.6444 123.274 38.0252 123.654 38.5059 123.698L58.6076 125.528C59.8201 125.638 59.8201 127.409 58.6076 127.519L38.5059 129.349C38.0252 129.392 37.6444 129.773 37.6006 130.254L35.7712 150.356C35.6609 151.568 33.8898 151.568 33.7795 150.356L31.9501 130.254C31.9063 129.773 31.5255 129.392 31.0448 129.349L10.9431 127.519C9.7306 127.409 9.7306 125.638 10.9431 125.528L31.0448 123.698C31.5255 123.654 31.9063 123.274 31.9501 122.793L33.7795 102.691Z" fill="white"/>
<path d="M161.782 218.115C161.893 216.902 163.664 216.902 163.774 218.115L167.27 256.528C167.313 257.008 167.694 257.389 168.175 257.433L206.588 260.929C207.8 261.039 207.8 262.81 206.588 262.92L168.175 266.416C167.694 266.46 167.313 266.841 167.27 267.321L163.774 305.734C163.664 306.947 161.893 306.947 161.782 305.734L158.286 267.321C158.243 266.841 157.862 266.46 157.381 266.416L118.968 262.92C117.756 262.81 117.756 261.039 118.968 260.929L157.381 257.433C157.862 257.389 158.243 257.008 158.286 256.528L161.782 218.115Z" fill="white"/>
<path d="M229.113 302.465C229.224 301.252 230.995 301.252 231.105 302.465L232.935 322.566C232.978 323.047 233.359 323.428 233.84 323.472L253.942 325.301C255.154 325.411 255.154 327.182 253.942 327.293L233.84 329.122C233.359 329.166 232.978 329.547 232.935 330.027L231.105 350.129C230.995 351.342 229.224 351.342 229.113 350.129L227.284 330.027C227.24 329.547 226.859 329.166 226.379 329.122L206.277 327.293C205.065 327.182 205.065 325.411 206.277 325.301L226.379 323.472C226.859 323.428 227.24 323.047 227.284 322.566L229.113 302.465Z" fill="white"/>
<path d="M1274.59 114.529C1274.7 113.317 1276.48 113.317 1276.59 114.529L1280.08 152.942C1280.12 153.422 1280.51 153.803 1280.99 153.847L1319.4 157.343C1320.61 157.453 1320.61 159.224 1319.4 159.334L1280.99 162.83C1280.51 162.874 1280.12 163.255 1280.08 163.736L1276.59 202.148C1276.48 203.361 1274.7 203.361 1274.59 202.148L1271.1 163.736C1271.05 163.255 1270.67 162.874 1270.19 162.83L1231.78 159.334C1230.57 159.224 1230.57 157.453 1231.78 157.343L1270.19 153.847C1270.67 153.803 1271.05 153.422 1271.1 152.942L1274.59 114.529Z" fill="white"/>
<path d="M833.612 25.7409C833.723 24.5284 835.494 24.5285 835.604 25.7409L839.1 64.1536C839.144 64.6343 839.524 65.0151 840.005 65.0589L878.418 68.5546C879.63 68.665 879.63 70.4361 878.418 70.5464L840.005 74.0422C839.524 74.0859 839.144 74.4668 839.1 74.9474L835.604 113.36C835.494 114.573 833.723 114.573 833.612 113.36L830.116 74.9474C830.073 74.4668 829.692 74.0859 829.211 74.0422L790.799 70.5464C789.586 70.4361 789.586 68.665 790.799 68.5546L829.211 65.0589C829.692 65.0151 830.073 64.6343 830.116 64.1536L833.612 25.7409Z" fill="white"/>
<path d="M1374.48 10.9431C1374.59 9.7306 1376.36 9.7306 1376.47 10.9431L1378.3 31.0448C1378.35 31.5255 1378.73 31.9063 1379.21 31.9501L1399.31 33.7795C1400.52 33.8898 1400.52 35.6609 1399.31 35.7712L1379.21 37.6006C1378.73 37.6444 1378.35 38.0252 1378.3 38.5059L1376.47 58.6076C1376.36 59.8201 1374.59 59.8201 1374.48 58.6076L1372.65 38.5059C1372.61 38.0252 1372.23 37.6444 1371.75 37.6006L1351.64 35.7712C1350.43 35.6609 1350.43 33.8898 1351.64 33.7795L1371.75 31.9501C1372.23 31.9063 1372.61 31.5255 1372.65 31.0448L1374.48 10.9431Z" fill="white"/>
<path d="M1504.7 237.353C1504.81 236.141 1506.58 236.141 1506.7 237.353L1508.52 257.455C1508.57 257.936 1508.95 258.317 1509.43 258.36L1529.53 260.19C1530.74 260.3 1530.74 262.071 1529.53 262.181L1509.43 264.011C1508.95 264.055 1508.57 264.435 1508.52 264.916L1506.7 285.018C1506.58 286.23 1504.81 286.23 1504.7 285.018L1502.87 264.916C1502.83 264.435 1502.45 264.055 1501.97 264.011L1481.87 262.181C1480.65 262.071 1480.65 260.3 1481.87 260.19L1501.97 258.36C1502.45 258.317 1502.83 257.936 1502.87 257.455L1504.7 237.353Z" fill="white"/>
<path d="M1739.25 65.696C1739.36 64.4835 1741.13 64.4835 1741.24 65.696L1744.74 104.109C1744.78 104.589 1745.16 104.97 1745.64 105.014L1784.06 108.51C1785.27 108.62 1785.27 110.391 1784.06 110.501L1745.64 113.997C1745.16 114.041 1744.78 114.422 1744.74 114.903L1741.24 153.315C1741.13 154.528 1739.36 154.528 1739.25 153.315L1735.76 114.903C1735.71 114.422 1735.33 114.041 1734.85 113.997L1696.44 110.501C1695.22 110.391 1695.22 108.62 1696.44 108.51L1734.85 105.014C1735.33 104.97 1735.71 104.589 1735.76 104.109L1739.25 65.696Z" fill="white"/>
<path d="M902.423 306.903C902.533 305.691 904.304 305.691 904.415 306.903L906.244 327.005C906.288 327.485 906.669 327.866 907.149 327.91L927.251 329.739C928.464 329.85 928.464 331.621 927.251 331.731L907.149 333.561C906.669 333.604 906.288 333.985 906.244 334.466L904.415 354.568C904.304 355.78 902.533 355.78 902.423 354.568L900.594 334.466C900.55 333.985 900.169 333.604 899.688 333.561L879.587 331.731C878.374 331.621 878.374 329.85 879.587 329.739L899.688 327.91C900.169 327.866 900.55 327.485 900.594 327.005L902.423 306.903Z" fill="white"/>
<path d="M33.7795 710.889C33.8898 709.677 35.6609 709.677 35.7712 710.889L37.6006 730.991C37.6444 731.472 38.0252 731.853 38.5059 731.896L58.6076 733.726C59.8201 733.836 59.8201 735.607 58.6076 735.718L38.5059 737.547C38.0252 737.591 37.6444 737.971 37.6006 738.452L35.7712 758.554C35.6609 759.766 33.8898 759.766 33.7795 758.554L31.9501 738.452C31.9063 737.971 31.5255 737.591 31.0448 737.547L10.9431 735.718C9.7306 735.607 9.7306 733.836 10.9431 733.726L31.0448 731.896C31.5255 731.853 31.9063 731.472 31.9501 730.991L33.7795 710.889Z" fill="white"/>
<path d="M161.782 826.314C161.893 825.102 163.664 825.102 163.774 826.314L167.27 864.727C167.313 865.208 167.694 865.588 168.175 865.632L206.588 869.128C207.8 869.238 207.8 871.009 206.588 871.12L168.175 874.615C167.694 874.659 167.313 875.04 167.27 875.521L163.774 913.933C163.664 915.146 161.893 915.146 161.782 913.933L158.286 875.521C158.243 875.04 157.862 874.659 157.381 874.615L118.968 871.12C117.756 871.009 117.756 869.238 118.968 869.128L157.381 865.632C157.862 865.588 158.243 865.208 158.286 864.727L161.782 826.314Z" fill="white"/>
<path d="M229.113 910.663C229.224 909.45 230.995 909.45 231.105 910.663L232.935 930.765C232.978 931.245 233.359 931.626 233.84 931.67L253.942 933.499C255.154 933.61 255.154 935.381 253.942 935.491L233.84 937.32C233.359 937.364 232.978 937.745 232.935 938.226L231.105 958.327C230.995 959.54 229.224 959.54 229.113 958.327L227.284 938.226C227.24 937.745 226.859 937.364 226.379 937.32L206.277 935.491C205.065 935.381 205.065 933.61 206.277 933.499L226.379 931.67C226.859 931.626 227.24 931.245 227.284 930.765L229.113 910.663Z" fill="white"/>
<path d="M1274.59 722.728C1274.7 721.516 1276.48 721.516 1276.59 722.728L1280.08 761.141C1280.12 761.622 1280.51 762.002 1280.99 762.046L1319.4 765.542C1320.61 765.652 1320.61 767.423 1319.4 767.534L1280.99 771.029C1280.51 771.073 1280.12 771.454 1280.08 771.935L1276.59 810.347C1276.48 811.56 1274.7 811.56 1274.59 810.347L1271.1 771.935C1271.05 771.454 1270.67 771.073 1270.19 771.029L1231.78 767.534C1230.57 767.423 1230.57 765.652 1231.78 765.542L1270.19 762.046C1270.67 762.002 1271.05 761.622 1271.1 761.141L1274.59 722.728Z" fill="white"/>
<path d="M833.612 633.94C833.723 632.728 835.494 632.728 835.604 633.94L839.1 672.353C839.144 672.834 839.524 673.214 840.005 673.258L878.418 676.754C879.63 676.864 879.63 678.635 878.418 678.746L840.005 682.241C839.524 682.285 839.144 682.666 839.1 683.147L835.604 721.559C835.494 722.772 833.723 722.772 833.612 721.559L830.116 683.147C830.073 682.666 829.692 682.285 829.211 682.241L790.799 678.746C789.586 678.635 789.586 676.864 790.799 676.754L829.211 673.258C829.692 673.214 830.073 672.834 830.116 672.353L833.612 633.94Z" fill="white"/>
<path d="M1374.48 619.141C1374.59 617.929 1376.36 617.929 1376.47 619.141L1378.3 639.243C1378.35 639.724 1378.73 640.105 1379.21 640.148L1399.31 641.978C1400.52 642.088 1400.52 643.859 1399.31 643.969L1379.21 645.799C1378.73 645.843 1378.35 646.223 1378.3 646.704L1376.47 666.806C1376.36 668.018 1374.59 668.018 1374.48 666.806L1372.65 646.704C1372.61 646.223 1372.23 645.843 1371.75 645.799L1351.64 643.969C1350.43 643.859 1350.43 642.088 1351.64 641.978L1371.75 640.148C1372.23 640.105 1372.61 639.724 1372.65 639.243L1374.48 619.141Z" fill="white"/>
<path d="M1504.7 845.551C1504.81 844.339 1506.58 844.339 1506.7 845.551L1508.52 865.653C1508.57 866.134 1508.95 866.515 1509.43 866.558L1529.53 868.388C1530.74 868.498 1530.74 870.269 1529.53 870.38L1509.43 872.209C1508.95 872.253 1508.57 872.634 1508.52 873.114L1506.7 893.216C1506.58 894.428 1504.81 894.428 1504.7 893.216L1502.87 873.114C1502.83 872.634 1502.45 872.253 1501.97 872.209L1481.87 870.38C1480.65 870.269 1480.65 868.498 1481.87 868.388L1501.97 866.558C1502.45 866.515 1502.83 866.134 1502.87 865.653L1504.7 845.551Z" fill="white"/>
<path d="M1739.25 673.894C1739.36 672.682 1741.13 672.682 1741.24 673.894L1744.74 712.307C1744.78 712.788 1745.16 713.168 1745.64 713.212L1784.06 716.708C1785.27 716.818 1785.27 718.589 1784.06 718.7L1745.64 722.196C1745.16 722.239 1744.78 722.62 1744.74 723.101L1741.24 761.513C1741.13 762.726 1739.36 762.726 1739.25 761.513L1735.76 723.101C1735.71 722.62 1735.33 722.239 1734.85 722.196L1696.44 718.7C1695.22 718.589 1695.22 716.818 1696.44 716.708L1734.85 713.212C1735.33 713.168 1735.71 712.788 1735.76 712.307L1739.25 673.894Z" fill="white"/>
<path d="M902.423 915.102C902.533 913.89 904.304 913.89 904.415 915.102L906.244 935.204C906.288 935.685 906.669 936.066 907.149 936.109L927.251 937.939C928.464 938.049 928.464 939.82 927.251 939.93L907.149 941.76C906.669 941.804 906.288 942.184 906.244 942.665L904.415 962.767C904.304 963.979 902.533 963.979 902.423 962.767L900.594 942.665C900.55 942.184 900.169 941.804 899.688 941.76L879.587 939.93C878.374 939.82 878.374 938.049 879.587 937.939L899.688 936.109C900.169 936.066 900.55 935.685 900.594 935.204L902.423 915.102Z" fill="white"/>
<path d="M33.7795 1308.73C33.8898 1307.52 35.6609 1307.52 35.7712 1308.73L37.6006 1328.83C37.6444 1329.31 38.0252 1329.69 38.5059 1329.74L58.6076 1331.57C59.8201 1331.68 59.8201 1333.45 58.6076 1333.56L38.5059 1335.39C38.0252 1335.43 37.6444 1335.81 37.6006 1336.29L35.7712 1356.39C35.6609 1357.61 33.8898 1357.61 33.7795 1356.39L31.9501 1336.29C31.9063 1335.81 31.5255 1335.43 31.0448 1335.39L10.9431 1333.56C9.7306 1333.45 9.7306 1331.68 10.9431 1331.57L31.0448 1329.74C31.5255 1329.69 31.9063 1329.31 31.9501 1328.83L33.7795 1308.73Z" fill="white"/>
<path d="M161.782 1424.15C161.893 1422.94 163.664 1422.94 163.774 1424.15L167.27 1462.57C167.313 1463.05 167.694 1463.43 168.175 1463.47L206.588 1466.97C207.8 1467.08 207.8 1468.85 206.588 1468.96L168.175 1472.46C167.694 1472.5 167.313 1472.88 167.27 1473.36L163.774 1511.77C163.664 1512.99 161.893 1512.99 161.782 1511.77L158.286 1473.36C158.243 1472.88 157.862 1472.5 157.381 1472.46L118.968 1468.96C117.756 1468.85 117.756 1467.08 118.968 1466.97L157.381 1463.47C157.862 1463.43 158.243 1463.05 158.286 1462.57L161.782 1424.15Z" fill="white"/>
<path d="M229.113 1508.5C229.224 1507.29 230.995 1507.29 231.105 1508.5L232.935 1528.61C232.978 1529.09 233.359 1529.47 233.84 1529.51L253.942 1531.34C255.154 1531.45 255.154 1533.22 253.942 1533.33L233.84 1535.16C233.359 1535.2 232.978 1535.59 232.935 1536.07L231.105 1556.17C230.995 1557.38 229.224 1557.38 229.113 1556.17L227.284 1536.07C227.24 1535.59 226.859 1535.2 226.379 1535.16L206.277 1533.33C205.065 1533.22 205.065 1531.45 206.277 1531.34L226.379 1529.51C226.859 1529.47 227.24 1529.09 227.284 1528.61L229.113 1508.5Z" fill="white"/>
<path d="M1274.59 1320.57C1274.7 1319.36 1276.48 1319.36 1276.59 1320.57L1280.08 1358.98C1280.12 1359.46 1280.51 1359.84 1280.99 1359.89L1319.4 1363.38C1320.61 1363.49 1320.61 1365.26 1319.4 1365.37L1280.99 1368.87C1280.51 1368.91 1280.12 1369.29 1280.08 1369.77L1276.59 1408.19C1276.48 1409.4 1274.7 1409.4 1274.59 1408.19L1271.1 1369.77C1271.05 1369.29 1270.67 1368.91 1270.19 1368.87L1231.78 1365.37C1230.57 1365.26 1230.57 1363.49 1231.78 1363.38L1270.19 1359.89C1270.67 1359.84 1271.05 1359.46 1271.1 1358.98L1274.59 1320.57Z" fill="white"/>
<path d="M833.612 1231.78C833.723 1230.57 835.494 1230.57 835.604 1231.78L839.1 1270.19C839.144 1270.67 839.524 1271.05 840.005 1271.1L878.418 1274.59C879.63 1274.7 879.63 1276.48 878.418 1276.59L840.005 1280.08C839.524 1280.12 839.144 1280.51 839.1 1280.99L835.604 1319.4C835.494 1320.61 833.723 1320.61 833.612 1319.4L830.116 1280.99C830.073 1280.51 829.692 1280.12 829.211 1280.08L790.799 1276.59C789.586 1276.48 789.586 1274.7 790.799 1274.59L829.211 1271.1C829.692 1271.05 830.073 1270.67 830.116 1270.19L833.612 1231.78Z" fill="white"/>
<path d="M1374.48 1216.98C1374.59 1215.77 1376.36 1215.77 1376.47 1216.98L1378.3 1237.08C1378.35 1237.56 1378.73 1237.95 1379.21 1237.99L1399.31 1239.82C1400.52 1239.93 1400.52 1241.7 1399.31 1241.81L1379.21 1243.64C1378.73 1243.68 1378.35 1244.06 1378.3 1244.54L1376.47 1264.65C1376.36 1265.86 1374.59 1265.86 1374.48 1264.65L1372.65 1244.54C1372.61 1244.06 1372.23 1243.68 1371.75 1243.64L1351.64 1241.81C1350.43 1241.7 1350.43 1239.93 1351.64 1239.82L1371.75 1237.99C1372.23 1237.95 1372.61 1237.56 1372.65 1237.08L1374.48 1216.98Z" fill="white"/>
<path d="M1504.7 1443.39C1504.81 1442.18 1506.58 1442.18 1506.7 1443.39L1508.52 1463.49C1508.57 1463.97 1508.95 1464.36 1509.43 1464.4L1529.53 1466.23C1530.74 1466.34 1530.74 1468.11 1529.53 1468.22L1509.43 1470.05C1508.95 1470.09 1508.57 1470.47 1508.52 1470.96L1506.7 1491.06C1506.58 1492.27 1504.81 1492.27 1504.7 1491.06L1502.87 1470.96C1502.83 1470.47 1502.45 1470.09 1501.97 1470.05L1481.87 1468.22C1480.65 1468.11 1480.65 1466.34 1481.87 1466.23L1501.97 1464.4C1502.45 1464.36 1502.83 1463.97 1502.87 1463.49L1504.7 1443.39Z" fill="white"/>
<path d="M1739.25 1271.73C1739.36 1270.52 1741.13 1270.52 1741.24 1271.73L1744.74 1310.15C1744.78 1310.63 1745.16 1311.01 1745.64 1311.05L1784.06 1314.55C1785.27 1314.66 1785.27 1316.43 1784.06 1316.54L1745.64 1320.04C1745.16 1320.08 1744.78 1320.46 1744.74 1320.94L1741.24 1359.35C1741.13 1360.57 1739.36 1360.57 1739.25 1359.35L1735.76 1320.94C1735.71 1320.46 1735.33 1320.08 1734.85 1320.04L1696.44 1316.54C1695.22 1316.43 1695.22 1314.66 1696.44 1314.55L1734.85 1311.05C1735.33 1311.01 1735.71 1310.63 1735.76 1310.15L1739.25 1271.73Z" fill="white"/>
<path d="M902.423 1512.94C902.533 1511.73 904.304 1511.73 904.415 1512.94L906.244 1533.04C906.288 1533.53 906.669 1533.91 907.149 1533.95L927.251 1535.78C928.464 1535.89 928.464 1537.66 927.251 1537.77L907.149 1539.6C906.669 1539.64 906.288 1540.03 906.244 1540.51L904.415 1560.61C904.304 1561.82 902.533 1561.82 902.423 1560.61L900.594 1540.51C900.55 1540.03 900.169 1539.64 899.688 1539.6L879.587 1537.77C878.374 1537.66 878.374 1535.89 879.587 1535.78L899.688 1533.95C900.169 1533.91 900.55 1533.53 900.594 1533.04L902.423 1512.94Z" fill="white"/>
<path d="M33.7795 2017.55C33.8898 2016.34 35.6609 2016.34 35.7712 2017.55L37.6006 2037.66C37.6444 2038.14 38.0252 2038.52 38.5059 2038.56L58.6076 2040.39C59.8201 2040.5 59.8201 2042.27 58.6076 2042.38L38.5059 2044.21C38.0252 2044.26 37.6444 2044.64 37.6006 2045.12L35.7712 2065.22C35.6609 2066.43 33.8898 2066.43 33.7795 2065.22L31.9501 2045.12C31.9063 2044.64 31.5255 2044.26 31.0448 2044.21L10.9431 2042.38C9.7306 2042.27 9.7306 2040.5 10.9431 2040.39L31.0448 2038.56C31.5255 2038.52 31.9063 2038.14 31.9501 2037.66L33.7795 2017.55Z" fill="white"/>
<path d="M161.782 2132.98C161.893 2131.77 163.664 2131.77 163.774 2132.98L167.27 2171.39C167.313 2171.87 167.694 2172.25 168.175 2172.3L206.588 2175.79C207.8 2175.9 207.8 2177.68 206.588 2177.79L168.175 2181.28C167.694 2181.33 167.313 2181.71 167.27 2182.19L163.774 2220.6C163.664 2221.81 161.893 2221.81 161.782 2220.6L158.286 2182.19C158.243 2181.71 157.862 2181.33 157.381 2181.28L118.968 2177.79C117.756 2177.68 117.756 2175.9 118.968 2175.79L157.381 2172.3C157.862 2172.25 158.243 2171.87 158.286 2171.39L161.782 2132.98Z" fill="white"/>
<path d="M229.113 2217.33C229.224 2216.12 230.995 2216.12 231.105 2217.33L232.935 2237.43C232.978 2237.91 233.359 2238.29 233.84 2238.33L253.942 2240.16C255.154 2240.27 255.154 2242.05 253.942 2242.16L233.84 2243.99C233.359 2244.03 232.978 2244.41 232.935 2244.89L231.105 2264.99C230.995 2266.2 229.224 2266.2 229.113 2264.99L227.284 2244.89C227.24 2244.41 226.859 2244.03 226.379 2243.99L206.277 2242.16C205.065 2242.05 205.065 2240.27 206.277 2240.16L226.379 2238.33C226.859 2238.29 227.24 2237.91 227.284 2237.43L229.113 2217.33Z" fill="white"/>
<path d="M1274.59 2029.39C1274.7 2028.18 1276.48 2028.18 1276.59 2029.39L1280.08 2067.8C1280.12 2068.29 1280.51 2068.67 1280.99 2068.71L1319.4 2072.21C1320.61 2072.32 1320.61 2074.09 1319.4 2074.2L1280.99 2077.69C1280.51 2077.74 1280.12 2078.12 1280.08 2078.6L1276.59 2117.01C1276.48 2118.22 1274.7 2118.22 1274.59 2117.01L1271.1 2078.6C1271.05 2078.12 1270.67 2077.74 1270.19 2077.69L1231.78 2074.2C1230.57 2074.09 1230.57 2072.32 1231.78 2072.21L1270.19 2068.71C1270.67 2068.67 1271.05 2068.29 1271.1 2067.8L1274.59 2029.39Z" fill="white"/>
<path d="M833.612 1940.61C833.723 1939.39 835.494 1939.39 835.604 1940.61L839.1 1979.02C839.144 1979.5 839.524 1979.88 840.005 1979.92L878.418 1983.42C879.63 1983.53 879.63 1985.3 878.418 1985.41L840.005 1988.91C839.524 1988.95 839.144 1989.33 839.1 1989.81L835.604 2028.22C835.494 2029.44 833.723 2029.44 833.612 2028.22L830.116 1989.81C830.073 1989.33 829.692 1988.95 829.211 1988.91L790.799 1985.41C789.586 1985.3 789.586 1983.53 790.799 1983.42L829.211 1979.92C829.692 1979.88 830.073 1979.5 830.116 1979.02L833.612 1940.61Z" fill="white"/>
<path d="M1374.48 1925.81C1374.59 1924.59 1376.36 1924.59 1376.47 1925.81L1378.3 1945.91C1378.35 1946.39 1378.73 1946.77 1379.21 1946.81L1399.31 1948.64C1400.52 1948.75 1400.52 1950.52 1399.31 1950.63L1379.21 1952.46C1378.73 1952.51 1378.35 1952.89 1378.3 1953.37L1376.47 1973.47C1376.36 1974.68 1374.59 1974.68 1374.48 1973.47L1372.65 1953.37C1372.61 1952.89 1372.23 1952.51 1371.75 1952.46L1351.64 1950.63C1350.43 1950.52 1350.43 1948.75 1351.64 1948.64L1371.75 1946.81C1372.23 1946.77 1372.61 1946.39 1372.65 1945.91L1374.48 1925.81Z" fill="white"/>
<path d="M1504.7 2152.22C1504.81 2151 1506.58 2151 1506.7 2152.22L1508.52 2172.32C1508.57 2172.8 1508.95 2173.18 1509.43 2173.22L1529.53 2175.05C1530.74 2175.16 1530.74 2176.93 1529.53 2177.04L1509.43 2178.87C1508.95 2178.92 1508.57 2179.3 1508.52 2179.78L1506.7 2199.88C1506.58 2201.09 1504.81 2201.09 1504.7 2199.88L1502.87 2179.78C1502.83 2179.3 1502.45 2178.92 1501.97 2178.87L1481.87 2177.04C1480.65 2176.93 1480.65 2175.16 1481.87 2175.05L1501.97 2173.22C1502.45 2173.18 1502.83 2172.8 1502.87 2172.32L1504.7 2152.22Z" fill="white"/>
<path d="M1739.25 1980.56C1739.36 1979.35 1741.13 1979.35 1741.24 1980.56L1744.74 2018.97C1744.78 2019.45 1745.16 2019.83 1745.64 2019.88L1784.06 2023.37C1785.27 2023.48 1785.27 2025.26 1784.06 2025.37L1745.64 2028.86C1745.16 2028.91 1744.78 2029.29 1744.74 2029.77L1741.24 2068.18C1741.13 2069.39 1739.36 2069.39 1739.25 2068.18L1735.76 2029.77C1735.71 2029.29 1735.33 2028.91 1734.85 2028.86L1696.44 2025.37C1695.22 2025.26 1695.22 2023.48 1696.44 2023.37L1734.85 2019.88C1735.33 2019.83 1735.71 2019.45 1735.76 2018.97L1739.25 1980.56Z" fill="white"/>
<path d="M902.423 2221.77C902.533 2220.55 904.304 2220.55 904.415 2221.77L906.244 2241.87C906.288 2242.35 906.669 2242.73 907.149 2242.77L927.251 2244.6C928.464 2244.71 928.464 2246.49 927.251 2246.6L907.149 2248.42C906.669 2248.47 906.288 2248.85 906.244 2249.33L904.415 2269.43C904.304 2270.64 902.533 2270.64 902.423 2269.43L900.594 2249.33C900.55 2248.85 900.169 2248.47 899.688 2248.42L879.587 2246.6C878.374 2246.49 878.374 2244.71 879.587 2244.6L899.688 2242.77C900.169 2242.73 900.55 2242.35 900.594 2241.87L902.423 2221.77Z" fill="white"/>
<path d="M33.7795 2673.11C33.8898 2671.89 35.6609 2671.89 35.7712 2673.11L37.6006 2693.21C37.6444 2693.69 38.0252 2694.07 38.5059 2694.11L58.6076 2695.94C59.8201 2696.05 59.8201 2697.82 58.6076 2697.94L38.5059 2699.76C38.0252 2699.81 37.6444 2700.19 37.6006 2700.67L35.7712 2720.77C35.6609 2721.98 33.8898 2721.98 33.7795 2720.77L31.9501 2700.67C31.9063 2700.19 31.5255 2699.81 31.0448 2699.76L10.9431 2697.94C9.7306 2697.82 9.7306 2696.05 10.9431 2695.94L31.0448 2694.11C31.5255 2694.07 31.9063 2693.69 31.9501 2693.21L33.7795 2673.11Z" fill="white"/>
<path d="M161.782 2788.53C161.893 2787.32 163.664 2787.32 163.774 2788.53L167.27 2826.94C167.313 2827.42 167.694 2827.81 168.175 2827.85L206.588 2831.34C207.8 2831.46 207.8 2833.23 206.588 2833.34L168.175 2836.83C167.694 2836.88 167.313 2837.26 167.27 2837.74L163.774 2876.15C163.664 2877.36 161.893 2877.36 161.782 2876.15L158.286 2837.74C158.243 2837.26 157.862 2836.88 157.381 2836.83L118.968 2833.34C117.756 2833.23 117.756 2831.46 118.968 2831.34L157.381 2827.85C157.862 2827.81 158.243 2827.42 158.286 2826.94L161.782 2788.53Z" fill="white"/>
<path d="M229.113 2872.88C229.224 2871.67 230.995 2871.67 231.105 2872.88L232.935 2892.98C232.978 2893.46 233.359 2893.84 233.84 2893.89L253.942 2895.72C255.154 2895.83 255.154 2897.6 253.942 2897.71L233.84 2899.54C233.359 2899.58 232.978 2899.96 232.935 2900.44L231.105 2920.55C230.995 2921.76 229.224 2921.76 229.113 2920.55L227.284 2900.44C227.24 2899.96 226.859 2899.58 226.379 2899.54L206.277 2897.71C205.065 2897.6 205.065 2895.83 206.277 2895.72L226.379 2893.89C226.859 2893.84 227.24 2893.46 227.284 2892.98L229.113 2872.88Z" fill="white"/>
<path d="M1274.59 2684.95C1274.7 2683.73 1276.48 2683.73 1276.59 2684.95L1280.08 2723.36C1280.12 2723.84 1280.51 2724.22 1280.99 2724.26L1319.4 2727.76C1320.61 2727.87 1320.61 2729.64 1319.4 2729.75L1280.99 2733.25C1280.51 2733.29 1280.12 2733.67 1280.08 2734.15L1276.59 2772.56C1276.48 2773.78 1274.7 2773.78 1274.59 2772.56L1271.1 2734.15C1271.05 2733.67 1270.67 2733.29 1270.19 2733.25L1231.78 2729.75C1230.57 2729.64 1230.57 2727.87 1231.78 2727.76L1270.19 2724.26C1270.67 2724.22 1271.05 2723.84 1271.1 2723.36L1274.59 2684.95Z" fill="white"/>
<path d="M833.612 2596.16C833.723 2594.95 835.494 2594.95 835.604 2596.16L839.1 2634.57C839.144 2635.05 839.524 2635.43 840.005 2635.48L878.418 2638.97C879.63 2639.08 879.63 2640.85 878.418 2640.96L840.005 2644.46C839.524 2644.5 839.144 2644.88 839.1 2645.36L835.604 2683.78C835.494 2684.99 833.723 2684.99 833.612 2683.78L830.116 2645.36C830.073 2644.88 829.692 2644.5 829.211 2644.46L790.799 2640.96C789.586 2640.85 789.586 2639.08 790.799 2638.97L829.211 2635.48C829.692 2635.43 830.073 2635.05 830.116 2634.57L833.612 2596.16Z" fill="white"/>
<path d="M1374.48 2581.36C1374.59 2580.15 1376.36 2580.15 1376.47 2581.36L1378.3 2601.46C1378.35 2601.94 1378.73 2602.32 1379.21 2602.37L1399.31 2604.2C1400.52 2604.31 1400.52 2606.08 1399.31 2606.19L1379.21 2608.02C1378.73 2608.06 1378.35 2608.44 1378.3 2608.92L1376.47 2629.02C1376.36 2630.24 1374.59 2630.24 1374.48 2629.02L1372.65 2608.92C1372.61 2608.44 1372.23 2608.06 1371.75 2608.02L1351.64 2606.19C1350.43 2606.08 1350.43 2604.31 1351.64 2604.2L1371.75 2602.37C1372.23 2602.32 1372.61 2601.94 1372.65 2601.46L1374.48 2581.36Z" fill="white"/>
<path d="M1504.7 2807.77C1504.81 2806.56 1506.58 2806.56 1506.7 2807.77L1508.52 2827.87C1508.57 2828.35 1508.95 2828.73 1509.43 2828.78L1529.53 2830.61C1530.74 2830.72 1530.74 2832.49 1529.53 2832.6L1509.43 2834.43C1508.95 2834.47 1508.57 2834.85 1508.52 2835.33L1506.7 2855.43C1506.58 2856.65 1504.81 2856.65 1504.7 2855.43L1502.87 2835.33C1502.83 2834.85 1502.45 2834.47 1501.97 2834.43L1481.87 2832.6C1480.65 2832.49 1480.65 2830.72 1481.87 2830.61L1501.97 2828.78C1502.45 2828.73 1502.83 2828.35 1502.87 2827.87L1504.7 2807.77Z" fill="white"/>
<path d="M1739.25 2636.11C1739.36 2634.9 1741.13 2634.9 1741.24 2636.11L1744.74 2674.52C1744.78 2675 1745.16 2675.39 1745.64 2675.43L1784.06 2678.92C1785.27 2679.04 1785.27 2680.81 1784.06 2680.92L1745.64 2684.41C1745.16 2684.46 1744.78 2684.84 1744.74 2685.32L1741.24 2723.73C1741.13 2724.94 1739.36 2724.94 1739.25 2723.73L1735.76 2685.32C1735.71 2684.84 1735.33 2684.46 1734.85 2684.41L1696.44 2680.92C1695.22 2680.81 1695.22 2679.04 1696.44 2678.92L1734.85 2675.43C1735.33 2675.39 1735.71 2675 1735.76 2674.52L1739.25 2636.11Z" fill="white"/>
<path d="M902.423 2877.32C902.533 2876.11 904.304 2876.11 904.415 2877.32L906.244 2897.42C906.288 2897.9 906.669 2898.28 907.149 2898.33L927.251 2900.16C928.464 2900.27 928.464 2902.04 927.251 2902.15L907.149 2903.98C906.669 2904.02 906.288 2904.4 906.244 2904.88L904.415 2924.98C904.304 2926.2 902.533 2926.2 902.423 2924.98L900.594 2904.88C900.55 2904.4 900.169 2904.02 899.688 2903.98L879.587 2902.15C878.374 2902.04 878.374 2900.27 879.587 2900.16L899.688 2898.33C900.169 2898.28 900.55 2897.9 900.594 2897.42L902.423 2877.32Z" fill="white"/>
<path d="M33.7795 3211.76C33.8898 3210.54 35.6609 3210.54 35.7712 3211.76L37.6006 3231.86C37.6444 3232.34 38.0252 3232.72 38.5059 3232.76L58.6076 3234.59C59.8201 3234.7 59.8201 3236.47 58.6076 3236.58L38.5059 3238.41C38.0252 3238.46 37.6444 3238.84 37.6006 3239.32L35.7712 3259.42C35.6609 3260.63 33.8898 3260.63 33.7795 3259.42L31.9501 3239.32C31.9063 3238.84 31.5255 3238.46 31.0448 3238.41L10.9431 3236.58C9.7306 3236.47 9.7306 3234.7 10.9431 3234.59L31.0448 3232.76C31.5255 3232.72 31.9063 3232.34 31.9501 3231.86L33.7795 3211.76Z" fill="white"/>
<path d="M161.782 3327.18C161.893 3325.97 163.664 3325.97 163.774 3327.18L167.27 3365.59C167.313 3366.07 167.694 3366.45 168.175 3366.5L206.588 3369.99C207.8 3370.1 207.8 3371.87 206.588 3371.98L168.175 3375.48C167.694 3375.52 167.313 3375.91 167.27 3376.39L163.774 3414.8C163.664 3416.01 161.893 3416.01 161.782 3414.8L158.286 3376.39C158.243 3375.91 157.862 3375.52 157.381 3375.48L118.968 3371.98C117.756 3371.87 117.756 3370.1 118.968 3369.99L157.381 3366.5C157.862 3366.45 158.243 3366.07 158.286 3365.59L161.782 3327.18Z" fill="white"/>
<path d="M229.113 3411.53C229.224 3410.32 230.995 3410.32 231.105 3411.53L232.935 3431.63C232.978 3432.11 233.359 3432.49 233.84 3432.54L253.942 3434.37C255.154 3434.48 255.154 3436.25 253.942 3436.36L233.84 3438.19C233.359 3438.23 232.978 3438.61 232.935 3439.09L231.105 3459.19C230.995 3460.41 229.224 3460.41 229.113 3459.19L227.284 3439.09C227.24 3438.61 226.859 3438.23 226.379 3438.19L206.277 3436.36C205.065 3436.25 205.065 3434.48 206.277 3434.37L226.379 3432.54C226.859 3432.49 227.24 3432.11 227.284 3431.63L229.113 3411.53Z" fill="white"/>
<path d="M1274.59 3223.59C1274.7 3222.38 1276.48 3222.38 1276.59 3223.59L1280.08 3262.01C1280.12 3262.49 1280.51 3262.87 1280.99 3262.91L1319.4 3266.41C1320.61 3266.52 1320.61 3268.29 1319.4 3268.4L1280.99 3271.89C1280.51 3271.94 1280.12 3272.32 1280.08 3272.8L1276.59 3311.21C1276.48 3312.43 1274.7 3312.43 1274.59 3311.21L1271.1 3272.8C1271.05 3272.32 1270.67 3271.94 1270.19 3271.89L1231.78 3268.4C1230.57 3268.29 1230.57 3266.52 1231.78 3266.41L1270.19 3262.91C1270.67 3262.87 1271.05 3262.49 1271.1 3262.01L1274.59 3223.59Z" fill="white"/>
<path d="M833.612 3134.81C833.723 3133.59 835.494 3133.59 835.604 3134.81L839.1 3173.22C839.144 3173.7 839.524 3174.08 840.005 3174.12L878.418 3177.62C879.63 3177.73 879.63 3179.5 878.418 3179.61L840.005 3183.11C839.524 3183.15 839.144 3183.53 839.1 3184.01L835.604 3222.43C835.494 3223.64 833.723 3223.64 833.612 3222.43L830.116 3184.01C830.073 3183.53 829.692 3183.15 829.211 3183.11L790.799 3179.61C789.586 3179.5 789.586 3177.73 790.799 3177.62L829.211 3174.12C829.692 3174.08 830.073 3173.7 830.116 3173.22L833.612 3134.81Z" fill="white"/>
<path d="M1374.48 3120.01C1374.59 3118.8 1376.36 3118.8 1376.47 3120.01L1378.3 3140.11C1378.35 3140.59 1378.73 3140.97 1379.21 3141.01L1399.31 3142.84C1400.52 3142.95 1400.52 3144.73 1399.31 3144.84L1379.21 3146.67C1378.73 3146.71 1378.35 3147.09 1378.3 3147.57L1376.47 3167.67C1376.36 3168.88 1374.59 3168.88 1374.48 3167.67L1372.65 3147.57C1372.61 3147.09 1372.23 3146.71 1371.75 3146.67L1351.64 3144.84C1350.43 3144.73 1350.43 3142.95 1351.64 3142.84L1371.75 3141.01C1372.23 3140.97 1372.61 3140.59 1372.65 3140.11L1374.48 3120.01Z" fill="white"/>
<path d="M1504.7 3346.42C1504.81 3345.21 1506.58 3345.21 1506.7 3346.42L1508.52 3366.52C1508.57 3367 1508.95 3367.38 1509.43 3367.42L1529.53 3369.25C1530.74 3369.36 1530.74 3371.14 1529.53 3371.25L1509.43 3373.08C1508.95 3373.12 1508.57 3373.5 1508.52 3373.98L1506.7 3394.08C1506.58 3395.29 1504.81 3395.29 1504.7 3394.08L1502.87 3373.98C1502.83 3373.5 1502.45 3373.12 1501.97 3373.08L1481.87 3371.25C1480.65 3371.14 1480.65 3369.36 1481.87 3369.25L1501.97 3367.42C1502.45 3367.38 1502.83 3367 1502.87 3366.52L1504.7 3346.42Z" fill="white"/>
<path d="M1739.25 3174.76C1739.36 3173.55 1741.13 3173.55 1741.24 3174.76L1744.74 3213.17C1744.78 3213.65 1745.16 3214.03 1745.64 3214.08L1784.06 3217.57C1785.27 3217.68 1785.27 3219.45 1784.06 3219.56L1745.64 3223.06C1745.16 3223.1 1744.78 3223.49 1744.74 3223.97L1741.24 3262.38C1741.13 3263.59 1739.36 3263.59 1739.25 3262.38L1735.76 3223.97C1735.71 3223.49 1735.33 3223.1 1734.85 3223.06L1696.44 3219.56C1695.22 3219.45 1695.22 3217.68 1696.44 3217.57L1734.85 3214.08C1735.33 3214.03 1735.71 3213.65 1735.76 3213.17L1739.25 3174.76Z" fill="white"/>
<path d="M902.423 3415.97C902.533 3414.76 904.304 3414.76 904.415 3415.97L906.244 3436.07C906.288 3436.55 906.669 3436.93 907.149 3436.98L927.251 3438.8C928.464 3438.92 928.464 3440.69 927.251 3440.8L907.149 3442.63C906.669 3442.67 906.288 3443.05 906.244 3443.53L904.415 3463.63C904.304 3464.85 902.533 3464.85 902.423 3463.63L900.594 3443.53C900.55 3443.05 900.169 3442.67 899.688 3442.63L879.587 3440.8C878.374 3440.69 878.374 3438.92 879.587 3438.8L899.688 3436.98C900.169 3436.93 900.55 3436.55 900.594 3436.07L902.423 3415.97Z" fill="white"/>
<path d="M33.7795 3862.87C33.8898 3861.66 35.6609 3861.66 35.7712 3862.87L37.6006 3882.97C37.6444 3883.45 38.0252 3883.83 38.5059 3883.88L58.6076 3885.71C59.8201 3885.82 59.8201 3887.59 58.6076 3887.7L38.5059 3889.53C38.0252 3889.57 37.6444 3889.95 37.6006 3890.43L35.7712 3910.53C35.6609 3911.75 33.8898 3911.75 33.7795 3910.53L31.9501 3890.43C31.9063 3889.95 31.5255 3889.57 31.0448 3889.53L10.9431 3887.7C9.7306 3887.59 9.7306 3885.82 10.9431 3885.71L31.0448 3883.88C31.5255 3883.83 31.9063 3883.45 31.9501 3882.97L33.7795 3862.87Z" fill="white"/>
<path d="M161.782 3978.29C161.893 3977.08 163.664 3977.08 163.774 3978.29L167.27 4016.71C167.313 4017.19 167.694 4017.57 168.175 4017.61L206.588 4021.11C207.8 4021.22 207.8 4022.99 206.588 4023.1L168.175 4026.59C167.694 4026.64 167.313 4027.02 167.27 4027.5L163.774 4065.91C163.664 4067.12 161.893 4067.12 161.782 4065.91L158.286 4027.5C158.243 4027.02 157.862 4026.64 157.381 4026.59L118.968 4023.1C117.756 4022.99 117.756 4021.22 118.968 4021.11L157.381 4017.61C157.862 4017.57 158.243 4017.19 158.286 4016.71L161.782 3978.29Z" fill="white"/>
<path d="M229.113 4062.64C229.224 4061.43 230.995 4061.43 231.105 4062.64L232.935 4082.74C232.978 4083.22 233.359 4083.61 233.84 4083.65L253.942 4085.48C255.154 4085.59 255.154 4087.36 253.942 4087.47L233.84 4089.3C233.359 4089.34 232.978 4089.72 232.935 4090.21L231.105 4110.31C230.995 4111.52 229.224 4111.52 229.113 4110.31L227.284 4090.21C227.24 4089.72 226.859 4089.34 226.379 4089.3L206.277 4087.47C205.065 4087.36 205.065 4085.59 206.277 4085.48L226.379 4083.65C226.859 4083.61 227.24 4083.22 227.284 4082.74L229.113 4062.64Z" fill="white"/>
<path d="M1274.59 3874.71C1274.7 3873.49 1276.48 3873.49 1276.59 3874.71L1280.08 3913.12C1280.12 3913.6 1280.51 3913.98 1280.99 3914.02L1319.4 3917.52C1320.61 3917.63 1320.61 3919.4 1319.4 3919.51L1280.99 3923.01C1280.51 3923.05 1280.12 3923.43 1280.08 3923.91L1276.59 3962.33C1276.48 3963.54 1274.7 3963.54 1274.59 3962.33L1271.1 3923.91C1271.05 3923.43 1270.67 3923.05 1270.19 3923.01L1231.78 3919.51C1230.57 3919.4 1230.57 3917.63 1231.78 3917.52L1270.19 3914.02C1270.67 3913.98 1271.05 3913.6 1271.1 3913.12L1274.59 3874.71Z" fill="white"/>
<path d="M833.612 3785.92C833.723 3784.71 835.494 3784.71 835.604 3785.92L839.1 3824.33C839.144 3824.81 839.524 3825.19 840.005 3825.24L878.418 3828.73C879.63 3828.84 879.63 3830.61 878.418 3830.72L840.005 3834.22C839.524 3834.26 839.144 3834.64 839.1 3835.12L835.604 3873.54C835.494 3874.75 833.723 3874.75 833.612 3873.54L830.116 3835.12C830.073 3834.64 829.692 3834.26 829.211 3834.22L790.799 3830.72C789.586 3830.61 789.586 3828.84 790.799 3828.73L829.211 3825.24C829.692 3825.19 830.073 3824.81 830.116 3824.33L833.612 3785.92Z" fill="white"/>
<path d="M1374.48 3771.12C1374.59 3769.91 1376.36 3769.91 1376.47 3771.12L1378.3 3791.22C1378.35 3791.7 1378.73 3792.08 1379.21 3792.13L1399.31 3793.96C1400.52 3794.07 1400.52 3795.84 1399.31 3795.95L1379.21 3797.78C1378.73 3797.82 1378.35 3798.2 1378.3 3798.68L1376.47 3818.79C1376.36 3820 1374.59 3820 1374.48 3818.79L1372.65 3798.68C1372.61 3798.2 1372.23 3797.82 1371.75 3797.78L1351.64 3795.95C1350.43 3795.84 1350.43 3794.07 1351.64 3793.96L1371.75 3792.13C1372.23 3792.08 1372.61 3791.7 1372.65 3791.22L1374.48 3771.12Z" fill="white"/>
<path d="M1504.7 3997.53C1504.81 3996.32 1506.58 3996.32 1506.7 3997.53L1508.52 4017.63C1508.57 4018.11 1508.95 4018.49 1509.43 4018.54L1529.53 4020.37C1530.74 4020.48 1530.74 4022.25 1529.53 4022.36L1509.43 4024.19C1508.95 4024.23 1508.57 4024.61 1508.52 4025.09L1506.7 4045.19C1506.58 4046.41 1504.81 4046.41 1504.7 4045.19L1502.87 4025.09C1502.83 4024.61 1502.45 4024.23 1501.97 4024.19L1481.87 4022.36C1480.65 4022.25 1480.65 4020.48 1481.87 4020.37L1501.97 4018.54C1502.45 4018.49 1502.83 4018.11 1502.87 4017.63L1504.7 3997.53Z" fill="white"/>
<path d="M1739.25 3825.87C1739.36 3824.66 1741.13 3824.66 1741.24 3825.87L1744.74 3864.29C1744.78 3864.77 1745.16 3865.15 1745.64 3865.19L1784.06 3868.69C1785.27 3868.8 1785.27 3870.57 1784.06 3870.68L1745.64 3874.17C1745.16 3874.22 1744.78 3874.6 1744.74 3875.08L1741.24 3913.49C1741.13 3914.7 1739.36 3914.7 1739.25 3913.49L1735.76 3875.08C1735.71 3874.6 1735.33 3874.22 1734.85 3874.17L1696.44 3870.68C1695.22 3870.57 1695.22 3868.8 1696.44 3868.69L1734.85 3865.19C1735.33 3865.15 1735.71 3864.77 1735.76 3864.29L1739.25 3825.87Z" fill="white"/>
<path d="M902.423 4067.08C902.533 4065.87 904.304 4065.87 904.415 4067.08L906.244 4087.18C906.288 4087.66 906.669 4088.04 907.149 4088.09L927.251 4089.92C928.464 4090.03 928.464 4091.8 927.251 4091.91L907.149 4093.74C906.669 4093.78 906.288 4094.16 906.244 4094.64L904.415 4114.74C904.304 4115.96 902.533 4115.96 902.423 4114.74L900.594 4094.64C900.55 4094.16 900.169 4093.78 899.688 4093.74L879.587 4091.91C878.374 4091.8 878.374 4090.03 879.587 4089.92L899.688 4088.09C900.169 4088.04 900.55 4087.66 900.594 4087.18L902.423 4067.08Z" fill="white"/>
<path d="M33.7795 4509.54C33.8898 4508.33 35.6609 4508.33 35.7712 4509.54L37.6006 4529.64C37.6444 4530.12 38.0252 4530.5 38.5059 4530.55L58.6076 4532.38C59.8201 4532.49 59.8201 4534.26 58.6076 4534.37L38.5059 4536.2C38.0252 4536.24 37.6444 4536.62 37.6006 4537.1L35.7712 4557.21C35.6609 4558.42 33.8898 4558.42 33.7795 4557.21L31.9501 4537.1C31.9063 4536.62 31.5255 4536.24 31.0448 4536.2L10.9431 4534.37C9.7306 4534.26 9.7306 4532.49 10.9431 4532.38L31.0448 4530.55C31.5255 4530.5 31.9063 4530.12 31.9501 4529.64L33.7795 4509.54Z" fill="white"/>
<path d="M161.782 4624.97C161.893 4623.75 163.664 4623.75 163.774 4624.97L167.27 4663.38C167.313 4663.86 167.694 4664.24 168.175 4664.28L206.588 4667.78C207.8 4667.89 207.8 4669.66 206.588 4669.77L168.175 4673.27C167.694 4673.31 167.313 4673.69 167.27 4674.17L163.774 4712.59C163.664 4713.8 161.893 4713.8 161.782 4712.59L158.286 4674.17C158.243 4673.69 157.862 4673.31 157.381 4673.27L118.968 4669.77C117.756 4669.66 117.756 4667.89 118.968 4667.78L157.381 4664.28C157.862 4664.24 158.243 4663.86 158.286 4663.38L161.782 4624.97Z" fill="white"/>
<path d="M229.113 4709.31C229.224 4708.1 230.995 4708.1 231.105 4709.31L232.935 4729.42C232.978 4729.9 233.359 4730.28 233.84 4730.32L253.942 4732.15C255.154 4732.26 255.154 4734.03 253.942 4734.14L233.84 4735.97C233.359 4736.02 232.978 4736.4 232.935 4736.88L231.105 4756.98C230.995 4758.19 229.224 4758.19 229.113 4756.98L227.284 4736.88C227.24 4736.4 226.859 4736.02 226.379 4735.97L206.277 4734.14C205.065 4734.03 205.065 4732.26 206.277 4732.15L226.379 4730.32C226.859 4730.28 227.24 4729.9 227.284 4729.42L229.113 4709.31Z" fill="white"/>
<path d="M1274.59 4521.38C1274.7 4520.17 1276.48 4520.17 1276.59 4521.38L1280.08 4559.79C1280.12 4560.27 1280.51 4560.65 1280.99 4560.7L1319.4 4564.19C1320.61 4564.3 1320.61 4566.08 1319.4 4566.19L1280.99 4569.68C1280.51 4569.73 1280.12 4570.11 1280.08 4570.59L1276.59 4609C1276.48 4610.21 1274.7 4610.21 1274.59 4609L1271.1 4570.59C1271.05 4570.11 1270.67 4569.73 1270.19 4569.68L1231.78 4566.19C1230.57 4566.08 1230.57 4564.3 1231.78 4564.19L1270.19 4560.7C1270.67 4560.65 1271.05 4560.27 1271.1 4559.79L1274.59 4521.38Z" fill="white"/>
<path d="M833.612 4432.59C833.723 4431.38 835.494 4431.38 835.604 4432.59L839.1 4471C839.144 4471.48 839.524 4471.87 840.005 4471.91L878.418 4475.41C879.63 4475.52 879.63 4477.29 878.418 4477.4L840.005 4480.89C839.524 4480.94 839.144 4481.32 839.1 4481.8L835.604 4520.21C835.494 4521.42 833.723 4521.42 833.612 4520.21L830.116 4481.8C830.073 4481.32 829.692 4480.94 829.211 4480.89L790.799 4477.4C789.586 4477.29 789.586 4475.52 790.799 4475.41L829.211 4471.91C829.692 4471.87 830.073 4471.48 830.116 4471L833.612 4432.59Z" fill="white"/>
<path d="M1374.48 4417.79C1374.59 4416.58 1376.36 4416.58 1376.47 4417.79L1378.3 4437.9C1378.35 4438.38 1378.73 4438.76 1379.21 4438.8L1399.31 4440.63C1400.52 4440.74 1400.52 4442.51 1399.31 4442.62L1379.21 4444.45C1378.73 4444.5 1378.35 4444.88 1378.3 4445.36L1376.47 4465.46C1376.36 4466.67 1374.59 4466.67 1374.48 4465.46L1372.65 4445.36C1372.61 4444.88 1372.23 4444.5 1371.75 4444.45L1351.64 4442.62C1350.43 4442.51 1350.43 4440.74 1351.64 4440.63L1371.75 4438.8C1372.23 4438.76 1372.61 4438.38 1372.65 4437.9L1374.48 4417.79Z" fill="white"/>
<path d="M1504.7 4644.2C1504.81 4642.99 1506.58 4642.99 1506.7 4644.2L1508.52 4664.31C1508.57 4664.79 1508.95 4665.17 1509.43 4665.21L1529.53 4667.04C1530.74 4667.15 1530.74 4668.92 1529.53 4669.03L1509.43 4670.86C1508.95 4670.91 1508.57 4671.29 1508.52 4671.77L1506.7 4691.87C1506.58 4693.08 1504.81 4693.08 1504.7 4691.87L1502.87 4671.77C1502.83 4671.29 1502.45 4670.91 1501.97 4670.86L1481.87 4669.03C1480.65 4668.92 1480.65 4667.15 1481.87 4667.04L1501.97 4665.21C1502.45 4665.17 1502.83 4664.79 1502.87 4664.31L1504.7 4644.2Z" fill="white"/>
<path d="M1739.25 4472.55C1739.36 4471.33 1741.13 4471.33 1741.24 4472.55L1744.74 4510.96C1744.78 4511.44 1745.16 4511.82 1745.64 4511.86L1784.06 4515.36C1785.27 4515.47 1785.27 4517.24 1784.06 4517.35L1745.64 4520.85C1745.16 4520.89 1744.78 4521.27 1744.74 4521.75L1741.24 4560.17C1741.13 4561.38 1739.36 4561.38 1739.25 4560.17L1735.76 4521.75C1735.71 4521.27 1735.33 4520.89 1734.85 4520.85L1696.44 4517.35C1695.22 4517.24 1695.22 4515.47 1696.44 4515.36L1734.85 4511.86C1735.33 4511.82 1735.71 4511.44 1735.76 4510.96L1739.25 4472.55Z" fill="white"/>
<path d="M902.423 4713.75C902.533 4712.54 904.304 4712.54 904.415 4713.75L906.244 4733.86C906.288 4734.34 906.669 4734.72 907.149 4734.76L927.251 4736.59C928.464 4736.7 928.464 4738.47 927.251 4738.58L907.149 4740.41C906.669 4740.45 906.288 4740.84 906.244 4741.32L904.415 4761.42C904.304 4762.63 902.533 4762.63 902.423 4761.42L900.594 4741.32C900.55 4740.84 900.169 4740.45 899.688 4740.41L879.587 4738.58C878.374 4738.47 878.374 4736.7 879.587 4736.59L899.688 4734.76C900.169 4734.72 900.55 4734.34 900.594 4733.86L902.423 4713.75Z" fill="white"/>
<path d="M229.113 5351.55C229.224 5350.34 230.995 5350.34 231.105 5351.55L232.935 5371.65C232.978 5372.13 233.359 5372.51 233.84 5372.56L253.942 5374.38C255.154 5374.5 255.154 5376.27 253.942 5376.38L233.84 5378.21C233.359 5378.25 232.978 5378.63 232.935 5379.11L231.105 5399.21C230.995 5400.43 229.224 5400.43 229.113 5399.21L227.284 5379.11C227.24 5378.63 226.859 5378.25 226.379 5378.21L206.277 5376.38C205.065 5376.27 205.065 5374.5 206.277 5374.38L226.379 5372.56C226.859 5372.51 227.24 5372.13 227.284 5371.65L229.113 5351.55Z" fill="white"/>
<path d="M902.423 5355.99C902.533 5354.78 904.304 5354.78 904.415 5355.99L906.244 5376.09C906.288 5376.57 906.669 5376.95 907.149 5377L927.251 5378.82C928.464 5378.93 928.464 5380.71 927.251 5380.82L907.149 5382.65C906.669 5382.69 906.288 5383.07 906.244 5383.55L904.415 5403.65C904.304 5404.87 902.533 5404.87 902.423 5403.65L900.594 5383.55C900.55 5383.07 900.169 5382.69 899.688 5382.65L879.587 5380.82C878.374 5380.71 878.374 5378.93 879.587 5378.82L899.688 5377C900.169 5376.95 900.55 5376.57 900.594 5376.09L902.423 5355.99Z" fill="white"/>
</svg>
