<svg width="299" height="1556" viewBox="0 0 299 1556" fill="none" xmlns="http://www.w3.org/2000/svg">
<path d="M81.2804 30.3955L81.5973 34.8994C81.6323 35.3964 82.0277 35.7918 82.5246 35.8268L87.0285 36.1437L82.5246 36.4606C82.0277 36.4955 81.6323 36.891 81.5973 37.3879L81.2804 41.8918L80.9635 37.3879C80.9285 36.891 80.5331 36.4955 80.0361 36.4606L75.5322 36.1437L80.0361 35.8268C80.5331 35.7918 80.9285 35.3964 80.9635 34.8994L81.2804 30.3955Z" fill="white"/>
<path d="M6.67687 18.165L6.99378 22.669C7.02874 23.1659 7.42417 23.5613 7.92112 23.5963L12.425 23.9132L7.92112 24.2301C7.42417 24.2651 7.02874 24.6605 6.99378 25.1575L6.67687 29.6614L6.35997 25.1574C6.325 24.6605 5.92958 24.2651 5.43262 24.2301L0.928711 23.9132L5.43262 23.5963C5.92958 23.5613 6.325 23.1659 6.35997 22.669L6.67687 18.165Z" fill="white"/>
<path d="M27.8345 37.2432L28.3685 44.8321C28.4034 45.3291 28.7988 45.7245 29.2958 45.7595L36.8848 46.2935L29.2958 46.8274C28.7988 46.8624 28.4034 47.2578 28.3685 47.7548L27.8345 55.3438L27.3005 47.7548C27.2655 47.2578 26.8701 46.8624 26.3732 46.8274L18.7842 46.2935L26.3732 45.7595C26.8701 45.7245 27.2655 45.3291 27.3005 44.8321L27.8345 37.2432Z" fill="white"/>
<path d="M38.965 51.1865L39.2819 55.6904C39.3168 56.1874 39.7123 56.5828 40.2092 56.6178L44.7131 56.9347L40.2092 57.2516C39.7123 57.2866 39.3168 57.682 39.2819 58.1789L38.965 62.6828L38.6481 58.1789C38.6131 57.682 38.2177 57.2866 37.7207 57.2516L33.2168 56.9347L37.7207 56.6178C38.2177 56.5828 38.6131 56.1874 38.6481 55.6904L38.965 51.1865Z" fill="white"/>
<path d="M211.776 20.1211L212.31 27.7101C212.345 28.207 212.74 28.6024 213.237 28.6374L220.826 29.1714L213.237 29.7054C212.74 29.7403 212.345 30.1358 212.31 30.6327L211.776 38.2217L211.242 30.6327C211.207 30.1358 210.812 29.7403 210.315 29.7054L202.726 29.1714L210.315 28.6374C210.812 28.6024 211.207 28.207 211.242 27.7101L211.776 20.1211Z" fill="white"/>
<path d="M121.05 0L121.584 7.58897C121.619 8.08593 122.015 8.48135 122.512 8.51632L130.101 9.0503L122.512 9.58427C122.015 9.61924 121.619 10.0147 121.584 10.5116L121.05 18.1006L120.516 10.5116C120.481 10.0147 120.086 9.61924 119.589 9.58427L112 9.0503L119.589 8.51632C120.086 8.48135 120.481 8.08593 120.516 7.58897L121.05 0Z" fill="white"/>
<path d="M228.286 3L228.603 7.50391C228.638 8.00087 229.034 8.39629 229.53 8.43126L234.034 8.74816L229.53 9.06507C229.034 9.10003 228.638 9.49546 228.603 9.99241L228.286 14.4963L227.969 9.99241C227.934 9.49546 227.539 9.10003 227.042 9.06507L222.538 8.74816L227.042 8.43126C227.539 8.39629 227.934 8.00087 227.969 7.50391L228.286 3Z" fill="white"/>
<path d="M249.813 40.4238L250.13 44.9277C250.164 45.4247 250.56 45.8201 251.057 45.8551L255.561 46.172L251.057 46.4889C250.56 46.5239 250.164 46.9193 250.13 47.4162L249.813 51.9202L249.496 47.4162C249.461 46.9193 249.065 46.5239 248.568 46.4889L244.064 46.172L248.568 45.8551C249.065 45.8201 249.461 45.4247 249.496 44.9277L249.813 40.4238Z" fill="white"/>
<path d="M288.582 12.0498L289.116 19.6388C289.15 20.1357 289.546 20.5312 290.043 20.5661L297.632 21.1001L290.043 21.6341C289.546 21.669 289.15 22.0645 289.116 22.5614L288.582 30.1504L288.048 22.5614C288.013 22.0645 287.617 21.669 287.12 21.6341L279.531 21.1001L287.12 20.5661C287.617 20.5312 288.013 20.1357 288.048 19.6388L288.582 12.0498Z" fill="white"/>
<path d="M150.259 51.9199L150.576 56.4238C150.611 56.9208 151.006 57.3162 151.503 57.3512L156.007 57.6681L151.503 57.985C151.006 58.02 150.611 58.4154 150.576 58.9123L150.259 63.4162L149.942 58.9123C149.907 58.4154 149.512 58.02 149.015 57.985L144.511 57.6681L149.015 57.3512C149.512 57.3162 149.907 56.9208 149.942 56.4238L150.259 51.9199Z" fill="white"/>
<path d="M6.67687 118.696L6.99378 123.2C7.02874 123.697 7.42417 124.093 7.92112 124.128L12.425 124.444L7.92112 124.761C7.42417 124.796 7.02874 125.192 6.99378 125.689L6.67687 130.193L6.35997 125.689C6.325 125.192 5.92958 124.796 5.43262 124.761L0.928711 124.444L5.43262 124.128C5.92958 124.093 6.325 123.697 6.35997 123.2L6.67687 118.696Z" fill="white"/>
<path d="M62.0503 110L62.5843 117.589C62.6192 118.086 63.0147 118.481 63.5116 118.516L71.1006 119.05L63.5116 119.584C63.0147 119.619 62.6192 120.015 62.5843 120.512L62.0503 128.101L61.5163 120.512C61.4814 120.015 61.0859 119.619 60.589 119.584L53 119.05L60.589 118.516C61.0859 118.481 61.4814 118.086 61.5163 117.589L62.0503 110Z" fill="white"/>
<path d="M86.7482 181L87.0651 185.504C87.1 186.001 87.4955 186.396 87.9924 186.431L92.4963 186.748L87.9924 187.065C87.4955 187.1 87.1 187.495 87.0651 187.992L86.7482 192.496L86.4313 187.992C86.3963 187.495 86.0009 187.1 85.5039 187.065L81 186.748L85.5039 186.431C86.0009 186.396 86.3963 186.001 86.4313 185.504L86.7482 181Z" fill="white"/>
<path d="M183.05 109L183.584 116.589C183.619 117.086 184.015 117.481 184.512 117.516L192.101 118.05L184.512 118.584C184.015 118.619 183.619 119.015 183.584 119.512L183.05 127.101L182.516 119.512C182.481 119.015 182.086 118.619 181.589 118.584L174 118.05L181.589 117.516C182.086 117.481 182.481 117.086 182.516 116.589L183.05 109Z" fill="white"/>
<path d="M136.05 121L136.584 128.589C136.619 129.086 137.015 129.481 137.512 129.516L145.101 130.05L137.512 130.584C137.015 130.619 136.619 131.015 136.584 131.512L136.05 139.101L135.516 131.512C135.481 131.015 135.086 130.619 134.589 130.584L127 130.05L134.589 129.516C135.086 129.481 135.481 129.086 135.516 128.589L136.05 121Z" fill="white"/>
<path d="M111.748 281L112.065 285.504C112.1 286.001 112.495 286.396 112.992 286.431L117.496 286.748L112.992 287.065C112.495 287.1 112.1 287.495 112.065 287.992L111.748 292.496L111.431 287.992C111.396 287.495 111.001 287.1 110.504 287.065L106 286.748L110.504 286.431C111.001 286.396 111.396 286.001 111.431 285.504L111.748 281Z" fill="white"/>
<path d="M249.813 140.955L250.13 145.459C250.164 145.956 250.56 146.351 251.057 146.386L255.561 146.703L251.057 147.02C250.56 147.055 250.164 147.451 250.13 147.947L249.813 152.451L249.496 147.947C249.461 147.451 249.065 147.055 248.568 147.02L244.064 146.703L248.568 146.386C249.065 146.351 249.461 145.956 249.496 145.459L249.813 140.955Z" fill="white"/>
<path d="M259.05 113L259.584 120.589C259.619 121.086 260.015 121.481 260.512 121.516L268.101 122.05L260.512 122.584C260.015 122.619 259.619 123.015 259.584 123.512L259.05 131.101L258.516 123.512C258.481 123.015 258.086 122.619 257.589 122.584L250 122.05L257.589 121.516C258.086 121.481 258.481 121.086 258.516 120.589L259.05 113Z" fill="white"/>
<path d="M150.259 152.452L150.576 156.956C150.611 157.453 151.006 157.848 151.503 157.883L156.007 158.2L151.503 158.517C151.006 158.552 150.611 158.948 150.576 159.445L150.259 163.948L149.942 159.445C149.907 158.948 149.512 158.552 149.015 158.517L144.511 158.2L149.015 157.883C149.512 157.848 149.907 157.453 149.942 156.956L150.259 152.452Z" fill="white"/>
<path d="M6.67687 217.517L6.99378 222.021C7.02874 222.517 7.42417 222.913 7.92112 222.948L12.425 223.265L7.92112 223.582C7.42417 223.617 7.02874 224.012 6.99378 224.509L6.67687 229.013L6.35997 224.509C6.325 224.012 5.92958 223.617 5.43262 223.582L0.928711 223.265L5.43262 222.948C5.92958 222.913 6.325 222.517 6.35997 222.021L6.67687 217.517Z" fill="white"/>
<path d="M76.0503 196L76.5843 203.589C76.6192 204.086 77.0147 204.481 77.5116 204.516L85.1006 205.05L77.5116 205.584C77.0147 205.619 76.6192 206.015 76.5843 206.512L76.0503 214.101L75.5163 206.512C75.4814 206.015 75.0859 205.619 74.589 205.584L67 205.05L74.589 204.516C75.0859 204.481 75.4814 204.086 75.5163 203.589L76.0503 196Z" fill="white"/>
<path d="M38.965 250.538L39.2819 255.042C39.3168 255.539 39.7123 255.934 40.2092 255.969L44.7131 256.286L40.2092 256.603C39.7123 256.638 39.3168 257.034 39.2819 257.53L38.965 262.034L38.6481 257.53C38.6131 257.034 38.2177 256.638 37.7207 256.603L33.2168 256.286L37.7207 255.969C38.2177 255.934 38.6131 255.539 38.6481 255.042L38.965 250.538Z" fill="white"/>
<path d="M204.05 229L204.584 236.589C204.619 237.086 205.015 237.481 205.512 237.516L213.101 238.05L205.512 238.584C205.015 238.619 204.619 239.015 204.584 239.512L204.05 247.101L203.516 239.512C203.481 239.015 203.086 238.619 202.589 238.584L195 238.05L202.589 237.516C203.086 237.481 203.481 237.086 203.516 236.589L204.05 229Z" fill="white"/>
<path d="M90.0503 233L90.5843 240.589C90.6192 241.086 91.0147 241.481 91.5116 241.516L99.1006 242.05L91.5116 242.584C91.0147 242.619 90.6192 243.015 90.5843 243.512L90.0503 251.101L89.5163 243.512C89.4814 243.015 89.0859 242.619 88.589 242.584L81 242.05L88.589 241.516C89.0859 241.481 89.4814 241.086 89.5163 240.589L90.0503 233Z" fill="white"/>
<path d="M227.748 222L228.065 226.504C228.1 227.001 228.495 227.396 228.992 227.431L233.496 227.748L228.992 228.065C228.495 228.1 228.1 228.495 228.065 228.992L227.748 233.496L227.431 228.992C227.396 228.495 227.001 228.1 226.504 228.065L222 227.748L226.504 227.431C227.001 227.396 227.396 227.001 227.431 226.504L227.748 222Z" fill="white"/>
<path d="M274.748 276L275.065 280.504C275.1 281.001 275.495 281.396 275.992 281.431L280.496 281.748L275.992 282.065C275.495 282.1 275.1 282.495 275.065 282.992L274.748 287.496L274.431 282.992C274.396 282.495 274.001 282.1 273.504 282.065L269 281.748L273.504 281.431C274.001 281.396 274.396 281.001 274.431 280.504L274.748 276Z" fill="white"/>
<path d="M288.582 211.401L289.116 218.99C289.15 219.487 289.546 219.883 290.043 219.918L297.632 220.452L290.043 220.986C289.546 221.021 289.15 221.416 289.116 221.913L288.582 229.502L288.048 221.913C288.013 221.416 287.617 221.021 287.12 220.986L279.531 220.452L287.12 219.918C287.617 219.883 288.013 219.487 288.048 218.99L288.582 211.401Z" fill="white"/>
<path d="M182.748 195L183.065 199.504C183.1 200.001 183.495 200.396 183.992 200.431L188.496 200.748L183.992 201.065C183.495 201.1 183.1 201.495 183.065 201.992L182.748 206.496L182.431 201.992C182.396 201.495 182.001 201.1 181.504 201.065L177 200.748L181.504 200.431C182.001 200.396 182.396 200.001 182.431 199.504L182.748 195Z" fill="white"/>
<path d="M72.7482 334L73.0651 338.504C73.1 339.001 73.4955 339.396 73.9924 339.431L78.4963 339.748L73.9924 340.065C73.4955 340.1 73.1 340.495 73.0651 340.992L72.7482 345.496L72.4313 340.992C72.3963 340.495 72.0009 340.1 71.5039 340.065L67 339.748L71.5039 339.431C72.0009 339.396 72.3963 339.001 72.4313 338.504L72.7482 334Z" fill="white"/>
<path d="M58.0503 311L58.5843 318.589C58.6192 319.086 59.0147 319.481 59.5116 319.516L67.1006 320.05L59.5116 320.584C59.0147 320.619 58.6192 321.015 58.5843 321.512L58.0503 329.101L57.5163 321.512C57.4814 321.015 57.0859 320.619 56.589 320.584L49 320.05L56.589 319.516C57.0859 319.481 57.4814 319.086 57.5163 318.589L58.0503 311Z" fill="white"/>
<path d="M24.7482 349L25.0651 353.504C25.1 354.001 25.4955 354.396 25.9924 354.431L30.4963 354.748L25.9924 355.065C25.4955 355.1 25.1 355.495 25.0651 355.992L24.7482 360.496L24.4313 355.992C24.3963 355.495 24.0009 355.1 23.5039 355.065L19 354.748L23.5039 354.431C24.0009 354.396 24.3963 354.001 24.4313 353.504L24.7482 349Z" fill="white"/>
<path d="M192.05 384L192.584 391.589C192.619 392.086 193.015 392.481 193.512 392.516L201.101 393.05L193.512 393.584C193.015 393.619 192.619 394.015 192.584 394.512L192.05 402.101L191.516 394.512C191.481 394.015 191.086 393.619 190.589 393.584L183 393.05L190.589 392.516C191.086 392.481 191.481 392.086 191.516 391.589L192.05 384Z" fill="white"/>
<path d="M157.05 302L157.584 309.589C157.619 310.086 158.015 310.481 158.512 310.516L166.101 311.05L158.512 311.584C158.015 311.619 157.619 312.015 157.584 312.512L157.05 320.101L156.516 312.512C156.481 312.015 156.086 311.619 155.589 311.584L148 311.05L155.589 310.516C156.086 310.481 156.481 310.086 156.516 309.589L157.05 302Z" fill="white"/>
<path d="M89.7482 411L90.0651 415.504C90.1 416.001 90.4955 416.396 90.9924 416.431L95.4963 416.748L90.9924 417.065C90.4955 417.1 90.1 417.495 90.0651 417.992L89.7482 422.496L89.4313 417.992C89.3963 417.495 89.0009 417.1 88.5039 417.065L84 416.748L88.5039 416.431C89.0009 416.396 89.3963 416.001 89.4313 415.504L89.7482 411Z" fill="white"/>
<path d="M228.748 318L229.065 322.504C229.1 323.001 229.495 323.396 229.992 323.431L234.496 323.748L229.992 324.065C229.495 324.1 229.1 324.495 229.065 324.992L228.748 329.496L228.431 324.992C228.396 324.495 228.001 324.1 227.504 324.065L223 323.748L227.504 323.431C228.001 323.396 228.396 323.001 228.431 322.504L228.748 318Z" fill="white"/>
<path d="M250.05 370L250.584 377.589C250.619 378.086 251.015 378.481 251.512 378.516L259.101 379.05L251.512 379.584C251.015 379.619 250.619 380.015 250.584 380.512L250.05 388.101L249.516 380.512C249.481 380.015 249.086 379.619 248.589 379.584L241 379.05L248.589 378.516C249.086 378.481 249.481 378.086 249.516 377.589L250.05 370Z" fill="white"/>
<path d="M126.748 348L127.065 352.504C127.1 353.001 127.495 353.396 127.992 353.431L132.496 353.748L127.992 354.065C127.495 354.1 127.1 354.495 127.065 354.992L126.748 359.496L126.431 354.992C126.396 354.495 126.001 354.1 125.504 354.065L121 353.748L125.504 353.431C126.001 353.396 126.396 353.001 126.431 352.504L126.748 348Z" fill="white"/>
<path d="M6.67687 443.039L6.99378 447.543C7.02874 448.04 7.42417 448.435 7.92112 448.47L12.425 448.787L7.92112 449.104C7.42417 449.139 7.02874 449.535 6.99378 450.031L6.67687 454.535L6.35997 450.031C6.325 449.535 5.92958 449.139 5.43262 449.104L0.928711 448.787L5.43262 448.47C5.92958 448.435 6.325 448.04 6.35997 447.543L6.67687 443.039Z" fill="white"/>
<path d="M40.0503 434L40.5843 441.589C40.6192 442.086 41.0147 442.481 41.5116 442.516L49.1006 443.05L41.5116 443.584C41.0147 443.619 40.6192 444.015 40.5843 444.512L40.0503 452.101L39.5163 444.512C39.4814 444.015 39.0859 443.619 38.589 443.584L31 443.05L38.589 442.516C39.0859 442.481 39.4814 442.086 39.5163 441.589L40.0503 434Z" fill="white"/>
<path d="M38.965 476.061L39.2819 480.564C39.3168 481.061 39.7123 481.457 40.2092 481.492L44.7131 481.809L40.2092 482.126C39.7123 482.161 39.3168 482.556 39.2819 483.053L38.965 487.557L38.6481 483.053C38.6131 482.556 38.2177 482.161 37.7207 482.126L33.2168 481.809L37.7207 481.492C38.2177 481.457 38.6131 481.061 38.6481 480.564L38.965 476.061Z" fill="white"/>
<path d="M211.776 444.998L212.31 452.587C212.345 453.084 212.74 453.479 213.237 453.514L220.826 454.048L213.237 454.582C212.74 454.617 212.345 455.013 212.31 455.51L211.776 463.099L211.242 455.51C211.207 455.013 210.812 454.617 210.315 454.582L202.726 454.048L210.315 453.514C210.812 453.479 211.207 453.084 211.242 452.587L211.776 444.998Z" fill="white"/>
<path d="M138.884 430.321L139.418 437.91C139.453 438.407 139.849 438.803 140.346 438.838L147.935 439.372L140.346 439.906C139.849 439.941 139.453 440.336 139.418 440.833L138.884 448.422L138.35 440.833C138.315 440.336 137.92 439.941 137.423 439.906L129.834 439.372L137.423 438.838C137.92 438.803 138.315 438.407 138.35 437.91L138.884 430.321Z" fill="white"/>
<path d="M228.286 427.873L228.603 432.377C228.638 432.874 229.034 433.269 229.53 433.304L234.034 433.621L229.53 433.938C229.034 433.973 228.638 434.369 228.603 434.865L228.286 439.369L227.969 434.865C227.934 434.369 227.539 433.973 227.042 433.938L222.538 433.621L227.042 433.304C227.539 433.269 227.934 432.874 227.969 432.377L228.286 427.873Z" fill="white"/>
<path d="M261.748 471L262.065 475.504C262.1 476.001 262.495 476.396 262.992 476.431L267.496 476.748L262.992 477.065C262.495 477.1 262.1 477.495 262.065 477.992L261.748 482.496L261.431 477.992C261.396 477.495 261.001 477.1 260.504 477.065L256 476.748L260.504 476.431C261.001 476.396 261.396 476.001 261.431 475.504L261.748 471Z" fill="white"/>
<path d="M274.05 437L274.584 444.589C274.619 445.086 275.015 445.481 275.512 445.516L283.101 446.05L275.512 446.584C275.015 446.619 274.619 447.015 274.584 447.512L274.05 455.101L273.516 447.512C273.481 447.015 273.086 446.619 272.589 446.584L265 446.05L272.589 445.516C273.086 445.481 273.481 445.086 273.516 444.589L274.05 437Z" fill="white"/>
<path d="M182.748 474L183.065 478.504C183.1 479.001 183.495 479.396 183.992 479.431L188.496 479.748L183.992 480.065C183.495 480.1 183.1 480.495 183.065 480.992L182.748 485.496L182.431 480.992C182.396 480.495 182.001 480.1 181.504 480.065L177 479.748L181.504 479.431C182.001 479.396 182.396 479.001 182.431 478.504L182.748 474Z" fill="white"/>
<path d="M6.67687 532.074L6.99378 536.578C7.02874 537.075 7.42417 537.471 7.92112 537.505L12.425 537.822L7.92112 538.139C7.42417 538.174 7.02874 538.57 6.99378 539.067L6.67687 543.571L6.35997 539.067C6.325 538.57 5.92958 538.174 5.43262 538.139L0.928711 537.822L5.43262 537.505C5.92958 537.471 6.325 537.075 6.35997 536.578L6.67687 532.074Z" fill="white"/>
<path d="M34.0503 505L34.5843 512.589C34.6192 513.086 35.0147 513.481 35.5116 513.516L43.1006 514.05L35.5116 514.584C35.0147 514.619 34.6192 515.015 34.5843 515.512L34.0503 523.101L33.5163 515.512C33.4814 515.015 33.0859 514.619 32.589 514.584L25 514.05L32.589 513.516C33.0859 513.481 33.4814 513.086 33.5163 512.589L34.0503 505Z" fill="white"/>
<path d="M38.965 565.096L39.2819 569.6C39.3168 570.097 39.7123 570.492 40.2092 570.527L44.7131 570.844L40.2092 571.161C39.7123 571.196 39.3168 571.591 39.2819 572.088L38.965 576.592L38.6481 572.088C38.6131 571.591 38.2177 571.196 37.7207 571.161L33.2168 570.844L37.7207 570.527C38.2177 570.492 38.6131 570.097 38.6481 569.6L38.965 565.096Z" fill="white"/>
<path d="M211.776 534.032L212.31 541.621C212.345 542.118 212.74 542.514 213.237 542.549L220.826 543.083L213.237 543.617C212.74 543.651 212.345 544.047 212.31 544.544L211.776 552.133L211.242 544.544C211.207 544.047 210.812 543.651 210.315 543.617L202.726 543.083L210.315 542.549C210.812 542.514 211.207 542.118 211.242 541.621L211.776 534.032Z" fill="white"/>
<path d="M153.05 513L153.584 520.589C153.619 521.086 154.015 521.481 154.512 521.516L162.101 522.05L154.512 522.584C154.015 522.619 153.619 523.015 153.584 523.512L153.05 531.101L152.516 523.512C152.481 523.015 152.086 522.619 151.589 522.584L144 522.05L151.589 521.516C152.086 521.481 152.481 521.086 152.516 520.589L153.05 513Z" fill="white"/>
<path d="M228.286 516.909L228.603 521.413C228.638 521.91 229.034 522.305 229.53 522.34L234.034 522.657L229.53 522.974C229.034 523.009 228.638 523.405 228.603 523.902L228.286 528.406L227.969 523.902C227.934 523.405 227.539 523.009 227.042 522.974L222.538 522.657L227.042 522.34C227.539 522.305 227.934 521.91 227.969 521.413L228.286 516.909Z" fill="white"/>
<path d="M249.813 554.333L250.13 558.837C250.164 559.334 250.56 559.729 251.057 559.764L255.561 560.081L251.057 560.398C250.56 560.433 250.164 560.828 250.13 561.325L249.813 565.829L249.496 561.325C249.461 560.828 249.065 560.433 248.568 560.398L244.064 560.081L248.568 559.764C249.065 559.729 249.461 559.334 249.496 558.837L249.813 554.333Z" fill="white"/>
<path d="M108.05 485L108.584 492.589C108.619 493.086 109.015 493.481 109.512 493.516L117.101 494.05L109.512 494.584C109.015 494.619 108.619 495.015 108.584 495.512L108.05 503.101L107.516 495.512C107.481 495.015 107.086 494.619 106.589 494.584L99 494.05L106.589 493.516C107.086 493.481 107.481 493.086 107.516 492.589L108.05 485Z" fill="white"/>
<path d="M83.7482 614L84.0651 618.504C84.1 619.001 84.4955 619.396 84.9924 619.431L89.4963 619.748L84.9924 620.065C84.4955 620.1 84.1 620.495 84.0651 620.992L83.7482 625.496L83.4313 620.992C83.3963 620.495 83.0009 620.1 82.5039 620.065L78 619.748L82.5039 619.431C83.0009 619.396 83.3963 619.001 83.4313 618.504L83.7482 614Z" fill="white"/>
<path d="M6.67687 639.699L6.99378 644.203C7.02874 644.7 7.42417 645.096 7.92112 645.13L12.425 645.447L7.92112 645.764C7.42417 645.799 7.02874 646.195 6.99378 646.692L6.67687 651.196L6.35997 646.692C6.325 646.195 5.92958 645.799 5.43262 645.764L0.928711 645.447L5.43262 645.13C5.92958 645.096 6.325 644.7 6.35997 644.203L6.67687 639.699Z" fill="white"/>
<path d="M27.8355 658.779L28.3694 666.368C28.4044 666.865 28.7998 667.261 29.2968 667.296L36.8857 667.83L29.2968 668.364C28.7998 668.399 28.4044 668.794 28.3694 669.291L27.8355 676.88L27.3015 669.291C27.2665 668.794 26.8711 668.399 26.3741 668.364L18.7852 667.83L26.3741 667.296C26.8711 667.261 27.2665 666.865 27.3015 666.368L27.8355 658.779Z" fill="white"/>
<path d="M38.965 672.721L39.2819 677.225C39.3168 677.722 39.7123 678.117 40.2092 678.152L44.7131 678.469L40.2092 678.786C39.7123 678.821 39.3168 679.216 39.2819 679.713L38.965 684.217L38.6481 679.713C38.6131 679.216 38.2177 678.821 37.7207 678.786L33.2168 678.469L37.7207 678.152C38.2177 678.117 38.6131 677.722 38.6481 677.225L38.965 672.721Z" fill="white"/>
<path d="M188.05 655L188.584 662.589C188.619 663.086 189.015 663.481 189.512 663.516L197.101 664.05L189.512 664.584C189.015 664.619 188.619 665.015 188.584 665.512L188.05 673.101L187.516 665.512C187.481 665.015 187.086 664.619 186.589 664.584L179 664.05L186.589 663.516C187.086 663.481 187.481 663.086 187.516 662.589L188.05 655Z" fill="white"/>
<path d="M166.05 588L166.584 595.589C166.619 596.086 167.015 596.481 167.512 596.516L175.101 597.05L167.512 597.584C167.015 597.619 166.619 598.015 166.584 598.512L166.05 606.101L165.516 598.512C165.481 598.015 165.086 597.619 164.589 597.584L157 597.05L164.589 596.516C165.086 596.481 165.481 596.086 165.516 595.589L166.05 588Z" fill="white"/>
<path d="M220.748 606L221.065 610.504C221.1 611.001 221.495 611.396 221.992 611.431L226.496 611.748L221.992 612.065C221.495 612.1 221.1 612.495 221.065 612.992L220.748 617.496L220.431 612.992C220.396 612.495 220.001 612.1 219.504 612.065L215 611.748L219.504 611.431C220.001 611.396 220.396 611.001 220.431 610.504L220.748 606Z" fill="white"/>
<path d="M274.748 681L275.065 685.504C275.1 686.001 275.495 686.396 275.992 686.431L280.496 686.748L275.992 687.065C275.495 687.1 275.1 687.495 275.065 687.992L274.748 692.496L274.431 687.992C274.396 687.495 274.001 687.1 273.504 687.065L269 686.748L273.504 686.431C274.001 686.396 274.396 686.001 274.431 685.504L274.748 681Z" fill="white"/>
<path d="M271.05 631L271.584 638.589C271.619 639.086 272.015 639.481 272.512 639.516L280.101 640.05L272.512 640.584C272.015 640.619 271.619 641.015 271.584 641.512L271.05 649.101L270.516 641.512C270.481 641.015 270.086 640.619 269.589 640.584L262 640.05L269.589 639.516C270.086 639.481 270.481 639.086 270.516 638.589L271.05 631Z" fill="white"/>
<path d="M150.259 673.455L150.576 677.959C150.611 678.456 151.006 678.851 151.503 678.886L156.007 679.203L151.503 679.52C151.006 679.555 150.611 679.951 150.576 680.447L150.259 684.951L149.942 680.447C149.907 679.951 149.512 679.555 149.015 679.52L144.511 679.203L149.015 678.886C149.512 678.851 149.907 678.456 149.942 677.959L150.259 673.455Z" fill="white"/>
<path d="M63.7482 740L64.0651 744.504C64.1 745.001 64.4955 745.396 64.9924 745.431L69.4963 745.748L64.9924 746.065C64.4955 746.1 64.1 746.495 64.0651 746.992L63.7482 751.496L63.4313 746.992C63.3963 746.495 63.0009 746.1 62.5039 746.065L58 745.748L62.5039 745.431C63.0009 745.396 63.3963 745.001 63.4313 744.504L63.7482 740Z" fill="white"/>
<path d="M12.0503 746L12.5843 753.589C12.6192 754.086 13.0147 754.481 13.5116 754.516L21.1006 755.05L13.5116 755.584C13.0147 755.619 12.6192 756.015 12.5843 756.512L12.0503 764.101L11.5163 756.512C11.4814 756.015 11.0859 755.619 10.589 755.584L3 755.05L10.589 754.516C11.0859 754.481 11.4814 754.086 11.5163 753.589L12.0503 746Z" fill="white"/>
<path d="M25.7482 786L26.0651 790.504C26.1 791.001 26.4955 791.396 26.9924 791.431L31.4963 791.748L26.9924 792.065C26.4955 792.1 26.1 792.495 26.0651 792.992L25.7482 797.496L25.4313 792.992C25.3963 792.495 25.0009 792.1 24.5039 792.065L20 791.748L24.5039 791.431C25.0009 791.396 25.3963 791.001 25.4313 790.504L25.7482 786Z" fill="white"/>
<path d="M175.05 733L175.584 740.589C175.619 741.086 176.015 741.481 176.512 741.516L184.101 742.05L176.512 742.584C176.015 742.619 175.619 743.015 175.584 743.512L175.05 751.101L174.516 743.512C174.481 743.015 174.086 742.619 173.589 742.584L166 742.05L173.589 741.516C174.086 741.481 174.481 741.086 174.516 740.589L175.05 733Z" fill="white"/>
<path d="M99.0503 706L99.5843 713.589C99.6192 714.086 100.015 714.481 100.512 714.516L108.101 715.05L100.512 715.584C100.015 715.619 99.6192 716.015 99.5843 716.512L99.0503 724.101L98.5163 716.512C98.4814 716.015 98.0859 715.619 97.589 715.584L90 715.05L97.589 714.516C98.0859 714.481 98.4814 714.086 98.5163 713.589L99.0503 706Z" fill="white"/>
<path d="M197.748 775L198.065 779.504C198.1 780.001 198.495 780.396 198.992 780.431L203.496 780.748L198.992 781.065C198.495 781.1 198.1 781.495 198.065 781.992L197.748 786.496L197.431 781.992C197.396 781.495 197.001 781.1 196.504 781.065L192 780.748L196.504 780.431C197.001 780.396 197.396 780.001 197.431 779.504L197.748 775Z" fill="white"/>
<path d="M264.748 700L265.065 704.504C265.1 705.001 265.495 705.396 265.992 705.431L270.496 705.748L265.992 706.065C265.495 706.1 265.1 706.495 265.065 706.992L264.748 711.496L264.431 706.992C264.396 706.495 264.001 706.1 263.504 706.065L259 705.748L263.504 705.431C264.001 705.396 264.396 705.001 264.431 704.504L264.748 700Z" fill="white"/>
<path d="M284.05 722L284.584 729.589C284.619 730.086 285.015 730.481 285.512 730.516L293.101 731.05L285.512 731.584C285.015 731.619 284.619 732.015 284.584 732.512L284.05 740.101L283.516 732.512C283.481 732.015 283.086 731.619 282.589 731.584L275 731.05L282.589 730.516C283.086 730.481 283.481 730.086 283.516 729.589L284.05 722Z" fill="white"/>
<path d="M135.748 761L136.065 765.504C136.1 766.001 136.495 766.396 136.992 766.431L141.496 766.748L136.992 767.065C136.495 767.1 136.1 767.495 136.065 767.992L135.748 772.496L135.431 767.992C135.396 767.495 135.001 767.1 134.504 767.065L130 766.748L134.504 766.431C135.001 766.396 135.396 766.001 135.431 765.504L135.748 761Z" fill="white"/>
<path d="M6.67687 852.75L6.99378 857.254C7.02874 857.751 7.42417 858.146 7.92112 858.181L12.425 858.498L7.92112 858.815C7.42417 858.85 7.02874 859.245 6.99378 859.742L6.67687 864.246L6.35997 859.742C6.325 859.245 5.92958 858.85 5.43262 858.815L0.928711 858.498L5.43262 858.181C5.92958 858.146 6.325 857.751 6.35997 857.254L6.67687 852.75Z" fill="white"/>
<path d="M27.8345 871.828L28.3685 879.417C28.4034 879.914 28.7988 880.309 29.2958 880.344L36.8848 880.878L29.2958 881.412C28.7988 881.447 28.4034 881.843 28.3685 882.34L27.8345 889.929L27.3005 882.34C27.2655 881.843 26.8701 881.447 26.3732 881.412L18.7842 880.878L26.3732 880.344C26.8701 880.309 27.2655 879.914 27.3005 879.417L27.8345 871.828Z" fill="white"/>
<path d="M38.965 885.771L39.2819 890.275C39.3168 890.772 39.7123 891.168 40.2092 891.203L44.7131 891.52L40.2092 891.837C39.7123 891.872 39.3168 892.267 39.2819 892.764L38.965 897.268L38.6481 892.764C38.6131 892.267 38.2177 891.872 37.7207 891.837L33.2168 891.52L37.7207 891.203C38.2177 891.168 38.6131 890.772 38.6481 890.275L38.965 885.771Z" fill="white"/>
<path d="M237.05 774L237.584 781.589C237.619 782.086 238.015 782.481 238.512 782.516L246.101 783.05L238.512 783.584C238.015 783.619 237.619 784.015 237.584 784.512L237.05 792.101L236.516 784.512C236.481 784.015 236.086 783.619 235.589 783.584L228 783.05L235.589 782.516C236.086 782.481 236.481 782.086 236.516 781.589L237.05 774Z" fill="white"/>
<path d="M138.884 840.029L139.418 847.618C139.453 848.115 139.849 848.511 140.346 848.546L147.935 849.08L140.346 849.614C139.849 849.649 139.453 850.044 139.418 850.541L138.884 858.13L138.35 850.541C138.315 850.044 137.92 849.649 137.423 849.614L129.834 849.08L137.423 848.546C137.92 848.511 138.315 848.115 138.35 847.618L138.884 840.029Z" fill="white"/>
<path d="M228.286 837.583L228.603 842.087C228.638 842.584 229.034 842.979 229.53 843.014L234.034 843.331L229.53 843.648C229.034 843.683 228.638 844.078 228.603 844.575L228.286 849.079L227.969 844.575C227.934 844.078 227.539 843.683 227.042 843.648L222.538 843.331L227.042 843.014C227.539 842.979 227.934 842.584 227.969 842.087L228.286 837.583Z" fill="white"/>
<path d="M249.813 875.007L250.13 879.511C250.164 880.008 250.56 880.403 251.057 880.438L255.561 880.755L251.057 881.072C250.56 881.107 250.164 881.502 250.13 881.999L249.813 886.503L249.496 881.999C249.461 881.502 249.065 881.107 248.568 881.072L244.064 880.755L248.568 880.438C249.065 880.403 249.461 880.008 249.496 879.511L249.813 875.007Z" fill="white"/>
<path d="M262.05 897L262.584 904.589C262.619 905.086 263.015 905.481 263.512 905.516L271.101 906.05L263.512 906.584C263.015 906.619 262.619 907.015 262.584 907.512L262.05 915.101L261.516 907.512C261.481 907.015 261.086 906.619 260.589 906.584L253 906.05L260.589 905.516C261.086 905.481 261.481 905.086 261.516 904.589L262.05 897Z" fill="white"/>
<path d="M150.259 886.503L150.576 891.007C150.611 891.504 151.006 891.899 151.503 891.934L156.007 892.251L151.503 892.568C151.006 892.603 150.611 892.998 150.576 893.495L150.259 897.999L149.942 893.495C149.907 892.998 149.512 892.603 149.015 892.568L144.511 892.251L149.015 891.934C149.512 891.899 149.907 891.504 149.942 891.007L150.259 886.503Z" fill="white"/>
<path d="M81.2804 865.396L81.5973 869.899C81.6323 870.396 82.0277 870.792 82.5246 870.827L87.0285 871.144L82.5246 871.461C82.0277 871.496 81.6323 871.891 81.5973 872.388L81.2804 876.892L80.9635 872.388C80.9285 871.891 80.5331 871.496 80.0361 871.461L75.5322 871.144L80.0361 870.827C80.5331 870.792 80.9285 870.396 80.9635 869.899L81.2804 865.396Z" fill="white"/>
<path d="M6.67687 853.165L6.99378 857.669C7.02874 858.166 7.42417 858.561 7.92112 858.596L12.425 858.913L7.92112 859.23C7.42417 859.265 7.02874 859.66 6.99378 860.157L6.67687 864.661L6.35997 860.157C6.325 859.66 5.92958 859.265 5.43262 859.23L0.928711 858.913L5.43262 858.596C5.92958 858.561 6.325 858.166 6.35997 857.669L6.67687 853.165Z" fill="white"/>
<path d="M27.8345 872.243L28.3685 879.832C28.4034 880.329 28.7988 880.725 29.2958 880.759L36.8848 881.293L29.2958 881.827C28.7988 881.862 28.4034 882.258 28.3685 882.755L27.8345 890.344L27.3005 882.755C27.2655 882.258 26.8701 881.862 26.3732 881.827L18.7842 881.293L26.3732 880.759C26.8701 880.725 27.2655 880.329 27.3005 879.832L27.8345 872.243Z" fill="white"/>
<path d="M38.965 886.187L39.2819 890.69C39.3168 891.187 39.7123 891.583 40.2092 891.618L44.7131 891.935L40.2092 892.252C39.7123 892.287 39.3168 892.682 39.2819 893.179L38.965 897.683L38.6481 893.179C38.6131 892.682 38.2177 892.287 37.7207 892.252L33.2168 891.935L37.7207 891.618C38.2177 891.583 38.6131 891.187 38.6481 890.69L38.965 886.187Z" fill="white"/>
<path d="M188.05 822L188.584 829.589C188.619 830.086 189.015 830.481 189.512 830.516L197.101 831.05L189.512 831.584C189.015 831.619 188.619 832.015 188.584 832.512L188.05 840.101L187.516 832.512C187.481 832.015 187.086 831.619 186.589 831.584L179 831.05L186.589 830.516C187.086 830.481 187.481 830.086 187.516 829.589L188.05 822Z" fill="white"/>
<path d="M138.884 840.445L139.418 848.034C139.453 848.531 139.849 848.927 140.346 848.962L147.935 849.496L140.346 850.03C139.849 850.065 139.453 850.46 139.418 850.957L138.884 858.546L138.35 850.957C138.315 850.46 137.92 850.065 137.423 850.03L129.834 849.496L137.423 848.962C137.92 848.927 138.315 848.531 138.35 848.034L138.884 840.445Z" fill="white"/>
<path d="M228.286 838L228.603 842.504C228.638 843.001 229.034 843.396 229.53 843.431L234.034 843.748L229.53 844.065C229.034 844.1 228.638 844.495 228.603 844.992L228.286 849.496L227.969 844.992C227.934 844.495 227.539 844.1 227.042 844.065L222.538 843.748L227.042 843.431C227.539 843.396 227.934 843.001 227.969 842.504L228.286 838Z" fill="white"/>
<path d="M249.813 875.424L250.13 879.928C250.164 880.425 250.56 880.82 251.057 880.855L255.561 881.172L251.057 881.489C250.56 881.524 250.164 881.919 250.13 882.416L249.813 886.92L249.496 882.416C249.461 881.919 249.065 881.524 248.568 881.489L244.064 881.172L248.568 880.855C249.065 880.82 249.461 880.425 249.496 879.928L249.813 875.424Z" fill="white"/>
<path d="M262.05 810L262.584 817.589C262.619 818.086 263.015 818.481 263.512 818.516L271.101 819.05L263.512 819.584C263.015 819.619 262.619 820.015 262.584 820.512L262.05 828.101L261.516 820.512C261.481 820.015 261.086 819.619 260.589 819.584L253 819.05L260.589 818.516C261.086 818.481 261.481 818.086 261.516 817.589L262.05 810Z" fill="white"/>
<path d="M150.259 886.92L150.576 891.424C150.611 891.921 151.006 892.316 151.503 892.351L156.007 892.668L151.503 892.985C151.006 893.02 150.611 893.415 150.576 893.912L150.259 898.416L149.942 893.912C149.907 893.415 149.512 893.02 149.015 892.985L144.511 892.668L149.015 892.351C149.512 892.316 149.907 891.921 149.942 891.424L150.259 886.92Z" fill="white"/>
<path d="M26.7482 926L27.0651 930.504C27.1 931.001 27.4955 931.396 27.9924 931.431L32.4963 931.748L27.9924 932.065C27.4955 932.1 27.1 932.495 27.0651 932.992L26.7482 937.496L26.4313 932.992C26.3963 932.495 26.0009 932.1 25.5039 932.065L21 931.748L25.5039 931.431C26.0009 931.396 26.3963 931.001 26.4313 930.504L26.7482 926Z" fill="white"/>
<path d="M50.0503 935L50.5843 942.589C50.6192 943.086 51.0147 943.481 51.5116 943.516L59.1006 944.05L51.5116 944.584C51.0147 944.619 50.6192 945.015 50.5843 945.512L50.0503 953.101L49.5163 945.512C49.4814 945.015 49.0859 944.619 48.589 944.584L41 944.05L48.589 943.516C49.0859 943.481 49.4814 943.086 49.5163 942.589L50.0503 935Z" fill="white"/>
<path d="M63.7482 950L64.0651 954.504C64.1 955.001 64.4955 955.396 64.9924 955.431L69.4963 955.748L64.9924 956.065C64.4955 956.1 64.1 956.495 64.0651 956.992L63.7482 961.496L63.4313 956.992C63.3963 956.495 63.0009 956.1 62.5039 956.065L58 955.748L62.5039 955.431C63.0009 955.396 63.3963 955.001 63.4313 954.504L63.7482 950Z" fill="white"/>
<path d="M211.776 955.653L212.31 963.242C212.345 963.739 212.74 964.135 213.237 964.17L220.826 964.704L213.237 965.238C212.74 965.273 212.345 965.668 212.31 966.165L211.776 973.754L211.242 966.165C211.207 965.668 210.812 965.273 210.315 965.238L202.726 964.704L210.315 964.17C210.812 964.135 211.207 963.739 211.242 963.242L211.776 955.653Z" fill="white"/>
<path d="M185.05 926L185.584 933.589C185.619 934.086 186.015 934.481 186.512 934.516L194.101 935.05L186.512 935.584C186.015 935.619 185.619 936.015 185.584 936.512L185.05 944.101L184.516 936.512C184.481 936.015 184.086 935.619 183.589 935.584L176 935.05L183.589 934.516C184.086 934.481 184.481 934.086 184.516 933.589L185.05 926Z" fill="white"/>
<path d="M228.286 938.531L228.603 943.035C228.638 943.532 229.034 943.928 229.53 943.963L234.034 944.279L229.53 944.596C229.034 944.631 228.638 945.027 228.603 945.524L228.286 950.028L227.969 945.524C227.934 945.027 227.539 944.631 227.042 944.596L222.538 944.279L227.042 943.963C227.539 943.928 227.934 943.532 227.969 943.035L228.286 938.531Z" fill="white"/>
<path d="M249.813 975.955L250.13 980.459C250.164 980.956 250.56 981.351 251.057 981.386L255.561 981.703L251.057 982.02C250.56 982.055 250.164 982.451 250.13 982.947L249.813 987.451L249.496 982.947C249.461 982.451 249.065 982.055 248.568 982.02L244.064 981.703L248.568 981.386C249.065 981.351 249.461 980.956 249.496 980.459L249.813 975.955Z" fill="white"/>
<path d="M288.582 947.581L289.116 955.17C289.15 955.667 289.546 956.062 290.043 956.097L297.632 956.631L290.043 957.165C289.546 957.2 289.15 957.596 289.116 958.093L288.582 965.682L288.048 958.093C288.013 957.596 287.617 957.2 287.12 957.165L279.531 956.631L287.12 956.097C287.617 956.062 288.013 955.667 288.048 955.17L288.582 947.581Z" fill="white"/>
<path d="M135.748 953L136.065 957.504C136.1 958.001 136.495 958.396 136.992 958.431L141.496 958.748L136.992 959.065C136.495 959.1 136.1 959.495 136.065 959.992L135.748 964.496L135.431 959.992C135.396 959.495 135.001 959.1 134.504 959.065L130 958.748L134.504 958.431C135.001 958.396 135.396 958.001 135.431 957.504L135.748 953Z" fill="white"/>
<path d="M23.7482 1042L24.0651 1046.5C24.1 1047 24.4955 1047.4 24.9924 1047.43L29.4963 1047.75L24.9924 1048.07C24.4955 1048.1 24.1 1048.5 24.0651 1048.99L23.7482 1053.5L23.4313 1048.99C23.3963 1048.5 23.0009 1048.1 22.5039 1048.07L18 1047.75L22.5039 1047.43C23.0009 1047.4 23.3963 1047 23.4313 1046.5L23.7482 1042Z" fill="white"/>
<path d="M39.0503 1048L39.5843 1055.59C39.6192 1056.09 40.0147 1056.48 40.5116 1056.52L48.1006 1057.05L40.5116 1057.58C40.0147 1057.62 39.6192 1058.01 39.5843 1058.51L39.0503 1066.1L38.5163 1058.51C38.4814 1058.01 38.0859 1057.62 37.589 1057.58L30 1057.05L37.589 1056.52C38.0859 1056.48 38.4814 1056.09 38.5163 1055.59L39.0503 1048Z" fill="white"/>
<path d="M29.7482 1075L30.0651 1079.5C30.1 1080 30.4955 1080.4 30.9924 1080.43L35.4963 1080.75L30.9924 1081.07C30.4955 1081.1 30.1 1081.5 30.0651 1081.99L29.7482 1086.5L29.4313 1081.99C29.3963 1081.5 29.0009 1081.1 28.5039 1081.07L24 1080.75L28.5039 1080.43C29.0009 1080.4 29.3963 1080 29.4313 1079.5L29.7482 1075Z" fill="white"/>
<path d="M148.05 1063L148.584 1070.59C148.619 1071.09 149.015 1071.48 149.512 1071.52L157.101 1072.05L149.512 1072.58C149.015 1072.62 148.619 1073.01 148.584 1073.51L148.05 1081.1L147.516 1073.51C147.481 1073.01 147.086 1072.62 146.589 1072.58L139 1072.05L146.589 1071.52C147.086 1071.48 147.481 1071.09 147.516 1070.59L148.05 1063Z" fill="white"/>
<path d="M64.0503 1092L64.5843 1099.59C64.6192 1100.09 65.0147 1100.48 65.5116 1100.52L73.1006 1101.05L65.5116 1101.58C65.0147 1101.62 64.6192 1102.01 64.5843 1102.51L64.0503 1110.1L63.5163 1102.51C63.4814 1102.01 63.0859 1101.62 62.589 1101.58L55 1101.05L62.589 1100.52C63.0859 1100.48 63.4814 1100.09 63.5163 1099.59L64.0503 1092Z" fill="white"/>
<path d="M168.748 1031L169.065 1035.5C169.1 1036 169.495 1036.4 169.992 1036.43L174.496 1036.75L169.992 1037.07C169.495 1037.1 169.1 1037.5 169.065 1037.99L168.748 1042.5L168.431 1037.99C168.396 1037.5 168.001 1037.1 167.504 1037.07L163 1036.75L167.504 1036.43C168.001 1036.4 168.396 1036 168.431 1035.5L168.748 1031Z" fill="white"/>
<path d="M274.748 1090L275.065 1094.5C275.1 1095 275.495 1095.4 275.992 1095.43L280.496 1095.75L275.992 1096.07C275.495 1096.1 275.1 1096.5 275.065 1096.99L274.748 1101.5L274.431 1096.99C274.396 1096.5 274.001 1096.1 273.504 1096.07L269 1095.75L273.504 1095.43C274.001 1095.4 274.396 1095 274.431 1094.5L274.748 1090Z" fill="white"/>
<path d="M265.05 1022L265.584 1029.59C265.619 1030.09 266.015 1030.48 266.512 1030.52L274.101 1031.05L266.512 1031.58C266.015 1031.62 265.619 1032.01 265.584 1032.51L265.05 1040.1L264.516 1032.51C264.481 1032.01 264.086 1031.62 263.589 1031.58L256 1031.05L263.589 1030.52C264.086 1030.48 264.481 1030.09 264.516 1029.59L265.05 1022Z" fill="white"/>
<path d="M97.7482 1012L98.0651 1016.5C98.1 1017 98.4955 1017.4 98.9924 1017.43L103.496 1017.75L98.9924 1018.07C98.4955 1018.1 98.1 1018.5 98.0651 1018.99L97.7482 1023.5L97.4313 1018.99C97.3963 1018.5 97.0009 1018.1 96.5039 1018.07L92 1017.75L96.5039 1017.43C97.0009 1017.4 97.3963 1017 97.4313 1016.5L97.7482 1012Z" fill="white"/>
<path d="M38.7482 1226L39.0651 1230.5C39.1 1231 39.4955 1231.4 39.9924 1231.43L44.4963 1231.75L39.9924 1232.07C39.4955 1232.1 39.1 1232.5 39.0651 1232.99L38.7482 1237.5L38.4313 1232.99C38.3963 1232.5 38.0009 1232.1 37.5039 1232.07L33 1231.75L37.5039 1231.43C38.0009 1231.4 38.3963 1231 38.4313 1230.5L38.7482 1226Z" fill="white"/>
<path d="M16.0503 1208L16.5843 1215.59C16.6192 1216.09 17.0147 1216.48 17.5116 1216.52L25.1006 1217.05L17.5116 1217.58C17.0147 1217.62 16.6192 1218.01 16.5843 1218.51L16.0503 1226.1L15.5163 1218.51C15.4814 1218.01 15.0859 1217.62 14.589 1217.58L7 1217.05L14.589 1216.52C15.0859 1216.48 15.4814 1216.09 15.5163 1215.59L16.0503 1208Z" fill="white"/>
<path d="M24.7482 1195L25.0651 1199.5C25.1 1200 25.4955 1200.4 25.9924 1200.43L30.4963 1200.75L25.9924 1201.07C25.4955 1201.1 25.1 1201.5 25.0651 1201.99L24.7482 1206.5L24.4313 1201.99C24.3963 1201.5 24.0009 1201.1 23.5039 1201.07L19 1200.75L23.5039 1200.43C24.0009 1200.4 24.3963 1200 24.4313 1199.5L24.7482 1195Z" fill="white"/>
<path d="M215.05 1175L215.584 1182.59C215.619 1183.09 216.015 1183.48 216.512 1183.52L224.101 1184.05L216.512 1184.58C216.015 1184.62 215.619 1185.01 215.584 1185.51L215.05 1193.1L214.516 1185.51C214.481 1185.01 214.086 1184.62 213.589 1184.58L206 1184.05L213.589 1183.52C214.086 1183.48 214.481 1183.09 214.516 1182.59L215.05 1175Z" fill="white"/>
<path d="M83.0503 1146L83.5843 1153.59C83.6192 1154.09 84.0147 1154.48 84.5116 1154.52L92.1006 1155.05L84.5116 1155.58C84.0147 1155.62 83.6192 1156.01 83.5843 1156.51L83.0503 1164.1L82.5163 1156.51C82.4814 1156.01 82.0859 1155.62 81.589 1155.58L74 1155.05L81.589 1154.52C82.0859 1154.48 82.4814 1154.09 82.5163 1153.59L83.0503 1146Z" fill="white"/>
<path d="M157.748 1140L158.065 1144.5C158.1 1145 158.495 1145.4 158.992 1145.43L163.496 1145.75L158.992 1146.07C158.495 1146.1 158.1 1146.5 158.065 1146.99L157.748 1151.5L157.431 1146.99C157.396 1146.5 157.001 1146.1 156.504 1146.07L152 1145.75L156.504 1145.43C157.001 1145.4 157.396 1145 157.431 1144.5L157.748 1140Z" fill="white"/>
<path d="M249.813 1191.94L250.13 1196.44C250.164 1196.94 250.56 1197.33 251.057 1197.37L255.561 1197.69L251.057 1198C250.56 1198.04 250.164 1198.43 250.13 1198.93L249.813 1203.43L249.496 1198.93C249.461 1198.43 249.065 1198.04 248.568 1198L244.064 1197.69L248.568 1197.37C249.065 1197.33 249.461 1196.94 249.496 1196.44L249.813 1191.94Z" fill="white"/>
<path d="M135.05 1199L135.584 1206.59C135.619 1207.09 136.015 1207.48 136.512 1207.52L144.101 1208.05L136.512 1208.58C136.015 1208.62 135.619 1209.01 135.584 1209.51L135.05 1217.1L134.516 1209.51C134.481 1209.01 134.086 1208.62 133.589 1208.58L126 1208.05L133.589 1207.52C134.086 1207.48 134.481 1207.09 134.516 1206.59L135.05 1199Z" fill="white"/>
<path d="M179.748 1227L180.065 1231.5C180.1 1232 180.495 1232.4 180.992 1232.43L185.496 1232.75L180.992 1233.07C180.495 1233.1 180.1 1233.5 180.065 1233.99L179.748 1238.5L179.431 1233.99C179.396 1233.5 179.001 1233.1 178.504 1233.07L174 1232.75L178.504 1232.43C179.001 1232.4 179.396 1232 179.431 1231.5L179.748 1227Z" fill="white"/>
<path d="M22.7482 1287L23.0651 1291.5C23.1 1292 23.4955 1292.4 23.9924 1292.43L28.4963 1292.75L23.9924 1293.07C23.4955 1293.1 23.1 1293.5 23.0651 1293.99L22.7482 1298.5L22.4313 1293.99C22.3963 1293.5 22.0009 1293.1 21.5039 1293.07L17 1292.75L21.5039 1292.43C22.0009 1292.4 22.3963 1292 22.4313 1291.5L22.7482 1287Z" fill="white"/>
<path d="M47.0503 1256L47.5843 1263.59C47.6192 1264.09 48.0147 1264.48 48.5116 1264.52L56.1006 1265.05L48.5116 1265.58C48.0147 1265.62 47.6192 1266.01 47.5843 1266.51L47.0503 1274.1L46.5163 1266.51C46.4814 1266.01 46.0859 1265.62 45.589 1265.58L38 1265.05L45.589 1264.52C46.0859 1264.48 46.4814 1264.09 46.5163 1263.59L47.0503 1256Z" fill="white"/>
<path d="M55.7482 1238L56.0651 1242.5C56.1 1243 56.4955 1243.4 56.9924 1243.43L61.4963 1243.75L56.9924 1244.07C56.4955 1244.1 56.1 1244.5 56.0651 1244.99L55.7482 1249.5L55.4313 1244.99C55.3963 1244.5 55.0009 1244.1 54.5039 1244.07L50 1243.75L54.5039 1243.43C55.0009 1243.4 55.3963 1243 55.4313 1242.5L55.7482 1238Z" fill="white"/>
<path d="M211.776 1280L212.31 1287.59C212.345 1288.08 212.74 1288.48 213.237 1288.51L220.826 1289.05L213.237 1289.58C212.74 1289.62 212.345 1290.01 212.31 1290.51L211.776 1298.1L211.242 1290.51C211.207 1290.01 210.812 1289.62 210.315 1289.58L202.726 1289.05L210.315 1288.51C210.812 1288.48 211.207 1288.08 211.242 1287.59L211.776 1280Z" fill="white"/>
<path d="M160.05 1272L160.584 1279.59C160.619 1280.09 161.015 1280.48 161.512 1280.52L169.101 1281.05L161.512 1281.58C161.015 1281.62 160.619 1282.01 160.584 1282.51L160.05 1290.1L159.516 1282.51C159.481 1282.01 159.086 1281.62 158.589 1281.58L151 1281.05L158.589 1280.52C159.086 1280.48 159.481 1280.09 159.516 1279.59L160.05 1272Z" fill="white"/>
<path d="M228.286 1262.87L228.603 1267.38C228.638 1267.87 229.034 1268.27 229.53 1268.3L234.034 1268.62L229.53 1268.94C229.034 1268.97 228.638 1269.37 228.603 1269.87L228.286 1274.37L227.969 1269.87C227.934 1269.37 227.539 1268.97 227.042 1268.94L222.538 1268.62L227.042 1268.3C227.539 1268.27 227.934 1267.87 227.969 1267.38L228.286 1262.87Z" fill="white"/>
<path d="M249.813 1300.3L250.13 1304.8C250.164 1305.3 250.56 1305.69 251.057 1305.73L255.561 1306.05L251.057 1306.36C250.56 1306.4 250.164 1306.79 250.13 1307.29L249.813 1311.79L249.496 1307.29C249.461 1306.79 249.065 1306.4 248.568 1306.36L244.064 1306.05L248.568 1305.73C249.065 1305.69 249.461 1305.3 249.496 1304.8L249.813 1300.3Z" fill="white"/>
<path d="M289.05 1245L289.584 1252.59C289.619 1253.09 290.015 1253.48 290.512 1253.52L298.101 1254.05L290.512 1254.58C290.015 1254.62 289.619 1255.01 289.584 1255.51L289.05 1263.1L288.516 1255.51C288.481 1255.01 288.086 1254.62 287.589 1254.58L280 1254.05L287.589 1253.52C288.086 1253.48 288.481 1253.09 288.516 1252.59L289.05 1245Z" fill="white"/>
<path d="M86.7482 1281L87.0651 1285.5C87.1 1286 87.4955 1286.4 87.9924 1286.43L92.4963 1286.75L87.9924 1287.07C87.4955 1287.1 87.1 1287.5 87.0651 1287.99L86.7482 1292.5L86.4313 1287.99C86.3963 1287.5 86.0009 1287.1 85.5039 1287.07L81 1286.75L85.5039 1286.43C86.0009 1286.4 86.3963 1286 86.4313 1285.5L86.7482 1281Z" fill="white"/>
<path d="M10.7482 1375L11.0651 1379.5C11.1 1380 11.4955 1380.4 11.9924 1380.43L16.4963 1380.75L11.9924 1381.07C11.4955 1381.1 11.1 1381.5 11.0651 1381.99L10.7482 1386.5L10.4313 1381.99C10.3963 1381.5 10.0009 1381.1 9.50391 1381.07L5 1380.75L9.50391 1380.43C10.0009 1380.4 10.3963 1380 10.4313 1379.5L10.7482 1375Z" fill="white"/>
<path d="M22.0503 1391L22.5843 1398.59C22.6192 1399.09 23.0147 1399.48 23.5116 1399.52L31.1006 1400.05L23.5116 1400.58C23.0147 1400.62 22.6192 1401.01 22.5843 1401.51L22.0503 1409.1L21.5163 1401.51C21.4814 1401.01 21.0859 1400.62 20.589 1400.58L13 1400.05L20.589 1399.52C21.0859 1399.48 21.4814 1399.09 21.5163 1398.59L22.0503 1391Z" fill="white"/>
<path d="M67.7482 1412L68.0651 1416.5C68.1 1417 68.4955 1417.4 68.9924 1417.43L73.4963 1417.75L68.9924 1418.07C68.4955 1418.1 68.1 1418.5 68.0651 1418.99L67.7482 1423.5L67.4313 1418.99C67.3963 1418.5 67.0009 1418.1 66.5039 1418.07L62 1417.75L66.5039 1417.43C67.0009 1417.4 67.3963 1417 67.4313 1416.5L67.7482 1412Z" fill="white"/>
<path d="M232.05 1352L232.584 1359.59C232.619 1360.09 233.015 1360.48 233.512 1360.52L241.101 1361.05L233.512 1361.58C233.015 1361.62 232.619 1362.01 232.584 1362.51L232.05 1370.1L231.516 1362.51C231.481 1362.01 231.086 1361.62 230.589 1361.58L223 1361.05L230.589 1360.52C231.086 1360.48 231.481 1360.09 231.516 1359.59L232.05 1352Z" fill="white"/>
<path d="M115.05 1345L115.584 1352.59C115.619 1353.09 116.015 1353.48 116.512 1353.52L124.101 1354.05L116.512 1354.58C116.015 1354.62 115.619 1355.01 115.584 1355.51L115.05 1363.1L114.516 1355.51C114.481 1355.01 114.086 1354.62 113.589 1354.58L106 1354.05L113.589 1353.52C114.086 1353.48 114.481 1353.09 114.516 1352.59L115.05 1345Z" fill="white"/>
<path d="M190.748 1342L191.065 1346.5C191.1 1347 191.495 1347.4 191.992 1347.43L196.496 1347.75L191.992 1348.07C191.495 1348.1 191.1 1348.5 191.065 1348.99L190.748 1353.5L190.431 1348.99C190.396 1348.5 190.001 1348.1 189.504 1348.07L185 1347.75L189.504 1347.43C190.001 1347.4 190.396 1347 190.431 1346.5L190.748 1342Z" fill="white"/>
<path d="M211.748 1385L212.065 1389.5C212.1 1390 212.495 1390.4 212.992 1390.43L217.496 1390.75L212.992 1391.07C212.495 1391.1 212.1 1391.5 212.065 1391.99L211.748 1396.5L211.431 1391.99C211.396 1391.5 211.001 1391.1 210.504 1391.07L206 1390.75L210.504 1390.43C211.001 1390.4 211.396 1390 211.431 1389.5L211.748 1385Z" fill="white"/>
<path d="M272.05 1363L272.584 1370.59C272.619 1371.09 273.015 1371.48 273.512 1371.52L281.101 1372.05L273.512 1372.58C273.015 1372.62 272.619 1373.01 272.584 1373.51L272.05 1381.1L271.516 1373.51C271.481 1373.01 271.086 1372.62 270.589 1372.58L263 1372.05L270.589 1371.52C271.086 1371.48 271.481 1371.09 271.516 1370.59L272.05 1363Z" fill="white"/>
<path d="M168.748 1401L169.065 1405.5C169.1 1406 169.495 1406.4 169.992 1406.43L174.496 1406.75L169.992 1407.07C169.495 1407.1 169.1 1407.5 169.065 1407.99L168.748 1412.5L168.431 1407.99C168.396 1407.5 168.001 1407.1 167.504 1407.07L163 1406.75L167.504 1406.43C168.001 1406.4 168.396 1406 168.431 1405.5L168.748 1401Z" fill="white"/>
<path d="M33.7482 1460L34.0651 1464.5C34.1 1465 34.4955 1465.4 34.9924 1465.43L39.4963 1465.75L34.9924 1466.07C34.4955 1466.1 34.1 1466.5 34.0651 1466.99L33.7482 1471.5L33.4313 1466.99C33.3963 1466.5 33.0009 1466.1 32.5039 1466.07L28 1465.75L32.5039 1465.43C33.0009 1465.4 33.3963 1465 33.4313 1464.5L33.7482 1460Z" fill="white"/>
<path d="M59.0503 1474L59.5843 1481.59C59.6192 1482.09 60.0147 1482.48 60.5116 1482.52L68.1006 1483.05L60.5116 1483.58C60.0147 1483.62 59.6192 1484.01 59.5843 1484.51L59.0503 1492.1L58.5163 1484.51C58.4814 1484.01 58.0859 1483.62 57.589 1483.58L50 1483.05L57.589 1482.52C58.0859 1482.48 58.4814 1482.09 58.5163 1481.59L59.0503 1474Z" fill="white"/>
<path d="M7.74816 1517L8.06507 1521.5C8.10003 1522 8.49546 1522.4 8.99241 1522.43L13.4963 1522.75L8.99241 1523.07C8.49546 1523.1 8.10003 1523.5 8.06507 1523.99L7.74816 1528.5L7.43126 1523.99C7.39629 1523.5 7.00087 1523.1 6.50391 1523.07L2 1522.75L6.50391 1522.43C7.00087 1522.4 7.39629 1522 7.43126 1521.5L7.74816 1517Z" fill="white"/>
<path d="M197.05 1457L197.584 1464.59C197.619 1465.09 198.015 1465.48 198.512 1465.52L206.101 1466.05L198.512 1466.58C198.015 1466.62 197.619 1467.01 197.584 1467.51L197.05 1475.1L196.516 1467.51C196.481 1467.01 196.086 1466.62 195.589 1466.58L188 1466.05L195.589 1465.52C196.086 1465.48 196.481 1465.09 196.516 1464.59L197.05 1457Z" fill="white"/>
<path d="M101.05 1437L101.584 1444.59C101.619 1445.09 102.015 1445.48 102.512 1445.52L110.101 1446.05L102.512 1446.58C102.015 1446.62 101.619 1447.01 101.584 1447.51L101.05 1455.1L100.516 1447.51C100.481 1447.01 100.086 1446.62 99.589 1446.58L92 1446.05L99.589 1445.52C100.086 1445.48 100.481 1445.09 100.516 1444.59L101.05 1437Z" fill="white"/>
<path d="M211.748 1474L212.065 1478.5C212.1 1479 212.495 1479.4 212.992 1479.43L217.496 1479.75L212.992 1480.07C212.495 1480.1 212.1 1480.5 212.065 1480.99L211.748 1485.5L211.431 1480.99C211.396 1480.5 211.001 1480.1 210.504 1480.07L206 1479.75L210.504 1479.43C211.001 1479.4 211.396 1479 211.431 1478.5L211.748 1474Z" fill="white"/>
<path d="M248.748 1418L249.065 1422.5C249.1 1423 249.495 1423.4 249.992 1423.43L254.496 1423.75L249.992 1424.07C249.495 1424.1 249.1 1424.5 249.065 1424.99L248.748 1429.5L248.431 1424.99C248.396 1424.5 248.001 1424.1 247.504 1424.07L243 1423.75L247.504 1423.43C248.001 1423.4 248.396 1423 248.431 1422.5L248.748 1418Z" fill="white"/>
<path d="M254.05 1508L254.584 1515.59C254.619 1516.09 255.015 1516.48 255.512 1516.52L263.101 1517.05L255.512 1517.58C255.015 1517.62 254.619 1518.01 254.584 1518.51L254.05 1526.1L253.516 1518.51C253.481 1518.01 253.086 1517.62 252.589 1517.58L245 1517.05L252.589 1516.52C253.086 1516.48 253.481 1516.09 253.516 1515.59L254.05 1508Z" fill="white"/>
<path d="M129.748 1495L130.065 1499.5C130.1 1500 130.495 1500.4 130.992 1500.43L135.496 1500.75L130.992 1501.07C130.495 1501.1 130.1 1501.5 130.065 1501.99L129.748 1506.5L129.431 1501.99C129.396 1501.5 129.001 1501.1 128.504 1501.07L124 1500.75L128.504 1500.43C129.001 1500.4 129.396 1500 129.431 1499.5L129.748 1495Z" fill="white"/>
</svg>
